<svg version="1.1" id="Layer_1" xmlns="http://www.w3.org/2000/svg" xmlns:xlink="http://www.w3.org/1999/xlink" x="0px" y="0px"
	 width="100%" viewBox="0 0 1242 2688" enable-background="new 0 0 1242 2688" xml:space="preserve">
<path fill="#110C22" opacity="1.000000" stroke="none" 
	d="
M364.000000,2689.000000 
	C242.666672,2689.000000 121.833336,2689.000000 1.000000,2689.000000 
	C1.000000,1793.000000 1.000000,897.000000 1.000000,1.000000 
	C415.000000,1.000000 829.000000,1.000000 1243.000000,1.000000 
	C1243.000000,897.000000 1243.000000,1793.000000 1243.000000,2689.000000 
	C950.166687,2689.000000 657.333313,2689.000000 364.000000,2689.000000 
M779.031311,1531.549683 
	C779.031311,1531.549683 778.939636,1531.746704 778.635315,1530.990112 
	C771.947693,1515.320435 765.177979,1499.684937 758.623596,1483.959717 
	C756.718079,1479.388062 753.279114,1475.681396 748.920593,1475.965698 
	C745.849304,1476.166016 743.036926,1480.337158 739.504944,1483.091187 
	C738.919189,1484.090576 738.203979,1485.036743 737.767517,1486.097534 
	C732.408752,1499.121826 726.841431,1512.068604 721.855408,1525.234985 
	C718.842285,1533.191406 716.172791,1541.026733 718.014404,1550.255859 
	C721.409302,1567.269653 739.976990,1582.496216 761.392578,1574.552368 
	C777.822144,1568.458008 786.490967,1550.239990 779.745850,1534.207886 
	C779.461121,1533.329102 779.176392,1532.450195 779.031311,1531.549683 
M404.628326,1483.592407 
	C402.408051,1490.000977 400.403564,1496.494629 397.918335,1502.798706 
	C393.920837,1512.938965 399.897217,1523.985474 410.465485,1525.519897 
	C419.790710,1526.873779 428.814514,1517.000366 426.413452,1506.857666 
	C424.448273,1498.556396 420.740112,1490.667603 417.692963,1481.869019 
	C415.369110,1479.859863 413.045258,1477.850708 410.721405,1475.841553 
	C408.833649,1478.242920 406.945923,1480.644287 404.628326,1483.592407 
M846.163391,1478.082397 
	C842.832092,1488.205078 838.659668,1498.148804 836.453308,1508.510986 
	C834.874329,1515.926636 843.138733,1524.995361 849.629028,1525.194092 
	C857.196045,1525.425781 863.623779,1518.337402 863.723694,1509.007690 
	C860.687866,1499.241089 857.937073,1489.370728 854.441223,1479.771606 
	C853.401550,1476.916748 850.517212,1473.813232 846.163391,1478.082397 
M663.863892,1542.810913 
	C663.555054,1540.691162 663.668457,1538.395996 662.871460,1536.479248 
	C655.634766,1519.076050 648.366150,1501.683350 640.798828,1484.422485 
	C638.957031,1480.221680 635.902832,1474.850830 631.031860,1475.947021 
	C627.265259,1476.794556 624.408752,1481.710815 621.177368,1484.848877 
	C620.994995,1485.025879 621.082642,1485.481079 620.449890,1486.186646 
	C618.737671,1490.329102 617.046997,1494.480469 615.309082,1498.612061 
	C610.423279,1510.226562 605.216125,1521.716553 600.683044,1533.466797 
	C591.138855,1558.206909 612.974609,1578.233521 633.596375,1576.778687 
	C650.592407,1575.579712 664.870239,1560.031982 663.863892,1542.810913 
M538.982971,1552.446777 
	C542.494507,1545.817383 541.022705,1539.147705 538.512695,1532.807373 
	C533.321228,1519.692871 527.822632,1506.694702 522.179138,1493.767090 
	C520.004639,1488.786011 517.531250,1483.815430 514.399109,1479.404663 
	C510.959839,1474.561157 507.277771,1474.352051 503.148468,1478.483398 
	C500.649567,1480.983276 498.601776,1484.184204 497.138824,1487.425415 
	C491.479279,1499.964600 486.201782,1512.675537 480.653412,1525.265869 
	C476.531342,1534.619629 474.004578,1544.226074 477.524170,1554.207520 
	C478.773682,1557.750977 481.813721,1560.663086 484.239777,1564.786133 
	C493.605408,1576.931885 510.061066,1580.265747 523.461975,1573.086792 
	C530.673218,1569.223755 535.420898,1563.389038 539.238037,1556.175171 
	C539.129211,1556.214722 539.020386,1556.254395 538.735413,1554.828247 
	C538.771057,1553.845337 538.806702,1552.862427 538.982971,1552.446777 
M733.749878,1430.796509 
	C757.722290,1430.820801 781.699158,1431.145630 805.665955,1430.789429 
	C832.683411,1430.388062 853.799072,1411.667969 854.966492,1386.258545 
	C856.012207,1363.499023 855.500061,1340.667725 856.013611,1317.685913 
	C855.045166,1308.109131 855.783020,1297.933838 852.685669,1289.103760 
	C848.616760,1277.504272 848.707764,1266.040283 848.670410,1254.310669 
	C848.592468,1229.823120 848.599976,1205.335327 848.436096,1180.848511 
	C848.402954,1175.898071 847.767029,1170.951782 847.299133,1165.149780 
	C842.528809,1132.953735 818.396973,1109.028076 786.999207,1107.780029 
	C756.315613,1106.560669 725.554626,1107.289673 693.922913,1107.013306 
	C623.445374,1106.969482 552.967590,1107.003784 482.490570,1106.792358 
	C472.578369,1106.762695 463.127808,1108.694214 454.751190,1113.373901 
	C429.122589,1127.691284 414.713867,1149.199463 414.768677,1179.319458 
	C414.801086,1197.146240 414.701080,1214.973511 414.608307,1232.800171 
	C414.601044,1234.196167 414.272339,1236.778198 413.940460,1236.803467 
	C410.155487,1237.091553 411.546265,1239.929199 411.503754,1241.716797 
	C411.153015,1256.464111 411.697144,1271.231567 405.519226,1285.291138 
	C403.650848,1289.543213 403.346466,1294.729248 403.305420,1299.495850 
	C403.096527,1323.768066 403.209045,1348.043091 403.209045,1372.317139 
	C403.785828,1372.373901 404.362610,1372.430542 404.939423,1372.487183 
	C405.644073,1370.955811 406.348724,1369.424316 407.063690,1367.870605 
	C407.696533,1368.547729 408.236511,1369.125488 408.671692,1370.698120 
	C408.498322,1381.176514 408.865387,1391.586426 413.865692,1401.156006 
	C418.376587,1409.788452 424.121002,1417.198486 434.494934,1420.646362 
	C436.667175,1421.410400 438.839417,1422.174438 441.751892,1423.313721 
	C444.051666,1423.568481 446.351471,1424.045288 448.651184,1424.044922 
	C483.564056,1424.039551 518.476929,1423.939819 553.389771,1423.966431 
	C556.998535,1423.969116 560.606812,1424.636230 562.681763,1425.155518 
	C538.914062,1425.663208 515.148315,1426.343628 491.377930,1426.604980 
	C479.597595,1426.734497 467.809723,1425.990356 456.023041,1425.879639 
	C453.421448,1425.855103 450.810394,1426.838379 448.203674,1427.357666 
	C448.211731,1427.857056 448.219757,1428.356445 448.227783,1428.855835 
	C449.711975,1429.204712 451.185059,1429.792236 452.682190,1429.861572 
	C459.493805,1430.177612 466.311798,1430.528442 473.128174,1430.542114 
	C538.554749,1430.672974 603.981506,1430.763794 669.408203,1430.807373 
	C690.542542,1430.821411 711.676941,1430.661011 733.749878,1430.796509 
M694.679932,1452.474243 
	C693.548645,1449.192871 692.522705,1445.870117 691.257141,1442.641357 
	C689.940979,1439.283569 688.033020,1436.247070 683.902161,1436.265259 
	C679.719055,1436.283691 678.100586,1439.474243 676.827332,1442.823853 
	C675.179565,1447.158813 673.524780,1451.491943 671.947998,1455.852905 
	C668.652771,1464.966919 670.033691,1469.569824 677.390564,1476.036011 
	C680.905823,1479.125732 684.460022,1479.247681 688.320679,1477.208008 
	C697.023254,1472.609863 699.313538,1464.217285 694.679932,1452.474243 
M581.262268,1477.412476 
	C587.138489,1474.513916 590.572571,1469.147949 589.552856,1463.292236 
	C588.153015,1455.253784 584.975586,1447.436401 581.827209,1439.827393 
	C580.182739,1435.853027 574.963562,1435.731812 572.428772,1439.257690 
	C567.279907,1446.419189 564.046082,1454.413818 564.292847,1463.361328 
	C564.578186,1473.703125 571.415405,1479.513428 581.262268,1477.412476 
M303.938538,1654.722290 
	C303.996796,1657.704590 303.921051,1660.697266 304.148560,1663.666626 
	C304.410126,1667.079956 306.513428,1669.073120 309.815247,1668.143921 
	C313.177917,1667.197754 316.617432,1665.189941 316.324890,1661.061157 
	C316.018829,1656.742065 312.687469,1655.285278 309.351837,1655.382935 
	C307.903351,1652.865234 306.646362,1650.680420 305.389343,1648.495605 
	C304.902039,1648.673462 304.414734,1648.851196 303.927429,1649.028931 
	C303.927429,1650.634888 303.927429,1652.240723 303.938538,1654.722290 
M297.046844,1652.385132 
	C296.375488,1648.833008 299.616455,1643.881104 293.200043,1641.567749 
	C293.200043,1645.889038 293.092773,1649.486938 293.281860,1653.069214 
	C293.324585,1653.878784 294.398407,1654.633911 294.997620,1655.414185 
	C295.672729,1654.721191 296.347809,1654.028198 297.046844,1652.385132 
z"/>
<path fill="#F4EEF3" opacity="1.000000" stroke="none" 
	d="
M441.011658,1422.938354 
	C438.839417,1422.174438 436.667175,1421.410400 434.304749,1420.006348 
	C434.792419,1416.761475 435.470276,1414.156494 436.185760,1411.407104 
	C437.463074,1411.314331 438.770721,1411.219360 440.453674,1411.218384 
	C445.667938,1412.141357 450.506927,1412.970215 455.785645,1413.778442 
	C461.881195,1413.788574 467.536957,1413.844116 473.192719,1413.846069 
	C515.941772,1413.860107 558.690796,1413.863770 601.931763,1413.989990 
	C666.368591,1414.177979 730.313477,1414.258789 794.258423,1414.290161 
	C798.899658,1414.292480 803.540955,1413.936035 808.575500,1413.745972 
	C820.607849,1412.343262 830.774536,1408.678223 835.528809,1396.006104 
	C835.962646,1386.177246 836.289062,1376.873413 836.637817,1367.356689 
	C834.530884,1368.192139 831.937317,1368.776245 830.348267,1370.364990 
	C820.733032,1379.978760 809.794678,1384.994385 795.693726,1384.109985 
	C781.673157,1383.230347 767.542908,1384.098511 752.964966,1384.246094 
	C720.360535,1384.257568 688.251892,1384.227051 656.143188,1384.187866 
	C597.916809,1384.116943 539.690369,1384.041016 481.420654,1383.587402 
	C483.699890,1382.788574 486.043701,1382.461060 488.339874,1381.928223 
	C491.657440,1381.158203 497.289886,1380.949585 497.803040,1379.252197 
	C499.421631,1373.899048 503.343231,1375.764038 506.432587,1374.903687 
	C507.252075,1374.675293 507.988434,1374.148315 509.473663,1373.400757 
	C508.027710,1372.770996 507.337036,1372.207520 506.649109,1372.210815 
	C498.666992,1372.249756 490.610291,1371.709839 482.717499,1372.600342 
	C458.798279,1375.298706 437.002655,1363.109009 429.280609,1340.324219 
	C427.989014,1336.513184 427.565521,1332.407959 426.800720,1328.793213 
	C429.682373,1339.889771 435.507782,1348.821899 443.393311,1356.496948 
	C453.984558,1366.805420 467.183319,1369.816406 481.367950,1369.849609 
	C507.795349,1369.911377 534.222961,1369.880005 561.151428,1369.960938 
	C609.117676,1369.922119 656.583191,1369.852173 704.047791,1369.602173 
	C707.248962,1369.585327 710.701538,1368.707153 713.521118,1367.238403 
	C714.755310,1366.595581 714.662354,1363.448486 715.233398,1361.455933 
	C715.362183,1361.006592 715.668640,1360.540405 716.024109,1360.233398 
	C723.132324,1354.093506 729.999634,1347.634033 737.459229,1341.953125 
	C744.392578,1336.673218 752.018127,1332.309814 759.206909,1327.351562 
	C760.773499,1326.270996 762.304504,1324.570801 762.950195,1322.822998 
	C765.571350,1315.727661 771.778564,1311.500000 776.584412,1306.425781 
	C782.997375,1299.654907 791.748840,1295.122437 798.309875,1288.460571 
	C803.338745,1283.354492 813.466492,1282.177490 812.430908,1271.861938 
	C812.411255,1271.666016 812.852661,1271.368286 813.130493,1271.206055 
	C816.751343,1269.089600 814.557617,1266.662231 812.962891,1265.113403 
	C809.519348,1261.769043 805.900146,1258.456055 801.867188,1255.894775 
	C787.618408,1246.845947 772.382019,1242.635864 755.346802,1246.586060 
	C750.013855,1247.822754 744.303406,1247.431274 738.417114,1247.807251 
	C739.699768,1243.841553 741.286987,1240.480591 741.831055,1236.958496 
	C743.377502,1226.948486 741.094543,1217.312500 736.943115,1208.355835 
	C733.790710,1201.554443 729.299011,1195.374023 725.338806,1188.826172 
	C725.274292,1188.734985 725.112183,1188.581299 725.063232,1188.267822 
	C722.849854,1185.589478 720.685364,1183.224487 718.431824,1180.757324 
	C718.342834,1180.655151 718.129456,1180.488037 718.090515,1180.346436 
	C717.954224,1180.024536 717.808960,1179.900024 717.448730,1179.556519 
	C717.158081,1179.106567 717.034546,1178.931274 716.877563,1178.581055 
	C716.707520,1178.178955 716.506897,1178.073608 716.154541,1178.005493 
	C716.067017,1177.920898 715.868591,1177.779785 715.775391,1177.482178 
	C713.416443,1175.029907 711.150757,1172.875122 708.716736,1170.558350 
	C708.548340,1170.396484 708.152466,1170.148315 708.063110,1169.904785 
	C707.111389,1169.079468 706.249084,1168.497803 705.304199,1167.835083 
	C705.221619,1167.753906 705.032349,1167.620483 704.956970,1167.457764 
	C704.713440,1167.101929 704.501221,1167.006104 704.176819,1166.943848 
	C704.108643,1166.879883 703.953552,1166.775391 703.859619,1166.568970 
	C703.375793,1166.162354 702.985840,1165.962158 702.304932,1165.554443 
	C688.822693,1155.838257 674.058411,1150.247559 658.186584,1146.974731 
	C630.564636,1141.279297 605.213379,1145.745361 582.645813,1163.087646 
	C569.152161,1173.456909 560.531738,1186.708252 561.467712,1204.390991 
	C561.879517,1212.169800 563.688843,1219.874634 564.893738,1227.811768 
	C564.273193,1227.765991 562.446594,1227.836670 560.713257,1227.468506 
	C552.923340,1225.813477 545.102722,1224.254395 537.397461,1222.258057 
	C514.101868,1216.221924 491.916992,1218.562622 470.757080,1230.474121 
	C470.357727,1230.468994 470.257172,1230.632202 470.041412,1231.082764 
	C469.379150,1231.478638 468.987762,1231.683472 468.251740,1231.884521 
	C462.699799,1234.757080 456.828644,1236.875854 452.457367,1240.706299 
	C447.270142,1245.251953 442.346161,1247.115356 436.513062,1244.682251 
	C435.434845,1242.514648 434.553467,1240.742920 433.889160,1238.732178 
	C434.544647,1238.021118 434.983124,1237.549072 435.694397,1237.011475 
	C436.205566,1236.302124 436.443909,1235.657959 436.846497,1234.704956 
	C465.009491,1199.272949 501.369720,1193.372925 543.155762,1205.024414 
	C543.155762,1201.424438 542.726257,1198.552734 543.239014,1195.860474 
	C544.597595,1188.726929 545.540405,1181.350830 548.145813,1174.653687 
	C552.954102,1162.294434 563.000916,1154.004028 573.121460,1146.034912 
	C582.601379,1138.570190 592.966309,1133.007202 604.823792,1129.970947 
	C624.597534,1124.907837 644.447693,1125.521484 664.349854,1128.201660 
	C685.524353,1131.052979 704.576721,1138.559570 719.451904,1154.702637 
	C723.398621,1158.985718 727.709656,1162.930786 731.736816,1167.142456 
	C747.406921,1183.531372 757.198547,1202.378296 755.901917,1225.760254 
	C755.730042,1228.859375 755.259888,1231.942017 754.931152,1235.001221 
	C755.696167,1235.146729 756.027771,1235.311646 756.305542,1235.246704 
	C758.734375,1234.677856 761.134399,1233.971802 763.578674,1233.486084 
	C778.482361,1230.523804 793.467468,1230.582886 807.017883,1237.701050 
	C837.728210,1253.833374 853.240234,1279.583984 852.557739,1315.010254 
	C852.480530,1322.529541 852.639038,1329.598267 852.768860,1336.667603 
	C853.108093,1355.140503 852.945435,1373.613647 848.846985,1391.731689 
	C845.182068,1407.933228 832.458923,1422.798462 814.115417,1423.017212 
	C805.816772,1423.116211 797.516296,1423.092529 789.216675,1423.088257 
	C743.785828,1423.064819 698.354919,1423.029541 652.924072,1422.999512 
	C588.107544,1422.956665 523.291016,1422.912842 458.474487,1422.875854 
	C452.653534,1422.872437 446.832581,1422.916382 441.011658,1422.938354 
M796.762573,1344.417358 
	C800.669678,1349.655396 803.779297,1350.712524 806.207886,1347.822021 
	C797.359497,1344.987793 798.921448,1336.784058 797.655762,1330.061646 
	C797.234375,1330.128906 796.813049,1330.196289 796.391663,1330.263550 
	C796.391663,1334.755493 796.391663,1339.247437 796.762573,1344.417358 
z"/>
<path fill="#30D6F8" opacity="1.000000" stroke="none" 
	d="
M852.780396,1314.560059 
	C853.240234,1279.583984 837.728210,1253.833374 807.017883,1237.701050 
	C793.467468,1230.582886 778.482361,1230.523804 763.578674,1233.486084 
	C761.134399,1233.971802 758.734375,1234.677856 756.305542,1235.246704 
	C756.027771,1235.311646 755.696167,1235.146729 754.931152,1235.001221 
	C755.259888,1231.942017 755.730042,1228.859375 755.901917,1225.760254 
	C757.198547,1202.378296 747.406921,1183.531372 731.736816,1167.142456 
	C727.709656,1162.930786 723.398621,1158.985718 719.451904,1154.702637 
	C704.576721,1138.559570 685.524353,1131.052979 664.349854,1128.201660 
	C644.447693,1125.521484 624.597534,1124.907837 604.823792,1129.970947 
	C592.966309,1133.007202 582.601379,1138.570190 573.121460,1146.034912 
	C563.000916,1154.004028 552.954102,1162.294434 548.145813,1174.653687 
	C545.540405,1181.350830 544.597595,1188.726929 543.239014,1195.860474 
	C542.726257,1198.552734 543.155762,1201.424438 543.155762,1205.024414 
	C501.369720,1193.372925 465.009491,1199.272949 436.562805,1234.756836 
	C435.883789,1235.770874 435.652710,1236.423828 435.421631,1237.076904 
	C434.983124,1237.549072 434.544647,1238.021118 433.579803,1238.806030 
	C431.522003,1241.643921 430.079071,1244.227905 428.444885,1246.684814 
	C416.527496,1264.601440 408.291077,1284.071655 404.965637,1305.331543 
	C403.260437,1316.233398 402.670654,1327.212036 407.779236,1337.878052 
	C413.393829,1349.600708 418.992950,1360.763794 430.510834,1368.335571 
	C443.198486,1376.675781 455.743134,1384.468018 471.840149,1384.445557 
	C473.501923,1384.563721 474.936859,1384.347290 476.505493,1384.155518 
	C476.639221,1384.180298 477.133057,1384.200317 477.483459,1384.537598 
	C480.473022,1385.087646 483.112122,1385.484009 485.751343,1385.484863 
	C517.386780,1385.495483 549.022217,1385.434814 580.657654,1385.445801 
	C582.588989,1385.446533 584.520264,1385.892212 586.451599,1386.130859 
	C586.425659,1386.641235 586.399719,1387.151611 586.373840,1387.661987 
	C584.844849,1387.806396 583.315674,1388.078979 581.786987,1388.075806 
	C561.474670,1388.032471 541.162354,1387.897339 520.850098,1387.894653 
	C504.534546,1387.892578 488.195465,1387.549561 471.913544,1388.330933 
	C464.032410,1388.709106 456.638031,1388.080566 449.845276,1384.441895 
	C443.321503,1380.947144 437.319763,1376.486572 431.002472,1372.589966 
	C429.716949,1371.797119 427.949615,1371.119751 426.594543,1371.379883 
	C425.894226,1371.514404 425.214417,1373.822266 425.213226,1375.148804 
	C425.209534,1379.304321 425.333832,1383.481079 425.768250,1387.611816 
	C426.879700,1398.179810 433.535614,1405.857422 443.921906,1407.861572 
	C449.269012,1408.893433 454.832306,1409.153564 460.298889,1409.162354 
	C501.093964,1409.228516 541.889282,1409.133911 582.684509,1409.133545 
	C585.148743,1409.133545 587.613037,1409.506958 590.066772,1409.982178 
	C590.725952,1411.113770 591.395630,1411.970093 591.620972,1413.009155 
	C558.697876,1413.171265 526.219116,1413.086792 493.740631,1413.161499 
	C480.941986,1413.190918 468.144104,1413.575928 455.345886,1413.799072 
	C450.506927,1412.970215 445.667938,1412.141357 440.272949,1410.916992 
	C431.548798,1405.031250 423.198212,1399.674194 421.933990,1388.601074 
	C421.241333,1382.534180 420.572815,1376.463013 420.023193,1370.382080 
	C419.822327,1368.159424 420.026642,1365.662231 416.794678,1366.077026 
	C413.826355,1366.458130 409.326416,1363.865479 408.776489,1369.703247 
	C408.236511,1369.125488 407.696533,1368.547729 407.063690,1367.870605 
	C406.348724,1369.424316 405.644073,1370.955811 404.939423,1372.487183 
	C404.362610,1372.430542 403.785828,1372.373901 403.209045,1372.317139 
	C403.209045,1348.043091 403.096527,1323.768066 403.305420,1299.495850 
	C403.346466,1294.729248 403.650848,1289.543213 405.519226,1285.291138 
	C411.697144,1271.231567 411.153015,1256.464111 411.503754,1241.716797 
	C411.546265,1239.929199 410.155487,1237.091553 413.940460,1236.803467 
	C414.272339,1236.778198 414.601044,1234.196167 414.608307,1232.800171 
	C414.701080,1214.973511 414.801086,1197.146240 414.768677,1179.319458 
	C414.713867,1149.199463 429.122589,1127.691284 454.751190,1113.373901 
	C463.127808,1108.694214 472.578369,1106.762695 482.490570,1106.792358 
	C552.967590,1107.003784 623.445374,1106.969482 694.048706,1107.305298 
	C688.028076,1107.718628 681.880310,1107.975220 675.735779,1107.914673 
	C671.535950,1107.873169 667.642944,1107.924316 664.329224,1111.272583 
	C663.134827,1112.479370 660.751038,1112.630737 658.858643,1113.001587 
	C653.848328,1113.983276 648.809875,1114.822021 643.782654,1115.717651 
	C644.434143,1116.591919 645.143616,1116.916504 645.864807,1116.944824 
	C655.112488,1117.308228 664.360474,1117.856812 673.611206,1117.916260 
	C697.420349,1118.069214 721.230957,1117.991455 745.040894,1118.039795 
	C746.790100,1118.043335 748.538757,1118.318115 750.287598,1118.466797 
	C750.263367,1118.943848 750.239075,1119.420898 750.214783,1119.897827 
	C746.795288,1120.255615 743.377686,1120.900146 739.956116,1120.922363 
	C723.306702,1121.030151 706.655945,1120.917969 690.006775,1121.041626 
	C688.010193,1121.056641 686.020752,1122.032227 683.564453,1122.639160 
	C678.648132,1122.715820 674.195374,1122.715820 669.742615,1122.715820 
	C669.726990,1123.124390 669.711426,1123.533081 669.695801,1123.941650 
	C671.600281,1124.357422 673.506714,1124.764526 675.408936,1125.190430 
	C689.374695,1128.317871 702.732056,1133.132690 713.351440,1142.977173 
	C722.964783,1151.889038 731.950928,1161.520508 740.758728,1171.246582 
	C750.577637,1182.089111 756.325012,1195.160400 759.302551,1209.392090 
	C760.656006,1215.861450 761.363525,1222.465942 762.367493,1229.031616 
	C762.972961,1229.112061 763.458252,1229.261353 763.929016,1229.224487 
	C766.252563,1229.043457 768.571289,1228.801392 770.893494,1228.601685 
	C792.219971,1226.767090 811.610657,1230.974365 827.448364,1246.533691 
	C829.441772,1248.492188 831.870117,1250.008179 834.317017,1251.913330 
	C837.361267,1255.104980 840.185364,1258.112427 843.009521,1261.119995 
	C843.351440,1260.906738 843.693420,1260.693481 844.035339,1260.480225 
	C844.035339,1234.499023 844.035339,1208.517944 844.142334,1182.178223 
	C844.347717,1179.387085 844.384888,1176.949829 844.559631,1174.522583 
	C844.780579,1171.453247 843.573669,1167.874146 847.408997,1166.003540 
	C847.767029,1170.951782 848.402954,1175.898071 848.436096,1180.848511 
	C848.599976,1205.335327 848.592468,1229.823120 848.670410,1254.310669 
	C848.707764,1266.040283 848.616760,1277.504272 852.685669,1289.103760 
	C855.783020,1297.933838 855.045166,1308.109131 855.771179,1317.598633 
	C854.612610,1316.527466 853.696533,1315.543823 852.780396,1314.560059 
M598.635864,1128.045044 
	C603.891296,1126.160889 609.146729,1124.276611 613.775391,1122.617065 
	C608.874268,1122.617065 603.386475,1122.620972 597.898682,1122.616455 
	C558.588074,1122.583740 519.277100,1122.452148 479.967346,1122.619141 
	C474.064117,1122.644165 467.684235,1122.875122 462.351318,1125.043335 
	C440.713013,1133.841064 429.077545,1150.546387 428.055786,1173.766602 
	C427.243622,1192.223999 427.787720,1210.741089 427.733032,1229.231689 
	C427.723938,1232.309326 427.731750,1235.386841 427.731750,1238.464478 
	C428.226807,1239.073853 428.721893,1239.683105 429.216949,1240.292480 
	C454.328125,1199.186279 491.323883,1189.261597 535.384216,1198.457520 
	C535.888184,1195.134766 536.120667,1192.490845 536.705139,1189.927246 
	C540.781921,1172.043335 552.133179,1158.921143 565.104187,1146.904785 
	C574.571411,1138.134277 586.233398,1133.200928 598.635864,1128.045044 
z"/>
<path fill="#89C1EB" opacity="1.000000" stroke="none" 
	d="
M847.354065,1165.576660 
	C843.573669,1167.874146 844.780579,1171.453247 844.559631,1174.522583 
	C844.384888,1176.949829 844.347717,1179.387085 843.777100,1182.237549 
	C837.547241,1181.649292 841.978516,1175.809082 839.224243,1173.562866 
	C837.477905,1174.458862 835.916504,1175.259888 834.211426,1175.622437 
	C834.038818,1173.852417 834.011169,1172.520874 833.980957,1171.189209 
	C833.514709,1150.651855 819.838745,1130.848267 800.086609,1125.000366 
	C791.400879,1122.428833 781.682922,1122.879272 772.425598,1122.789551 
	C742.961792,1122.503662 713.494141,1122.608643 684.028015,1122.562622 
	C686.020752,1122.032227 688.010193,1121.056641 690.006775,1121.041626 
	C706.655945,1120.917969 723.306702,1121.030151 739.956116,1120.922363 
	C743.377686,1120.900146 746.795288,1120.255615 750.214783,1119.897827 
	C750.239075,1119.420898 750.263367,1118.943848 750.287598,1118.466797 
	C748.538757,1118.318115 746.790100,1118.043335 745.040894,1118.039795 
	C721.230957,1117.991455 697.420349,1118.069214 673.611206,1117.916260 
	C664.360474,1117.856812 655.112488,1117.308228 645.864807,1116.944824 
	C645.143616,1116.916504 644.434143,1116.591919 643.782654,1115.717651 
	C648.809875,1114.822021 653.848328,1113.983276 658.858643,1113.001587 
	C660.751038,1112.630737 663.134827,1112.479370 664.329224,1111.272583 
	C667.642944,1107.924316 671.535950,1107.873169 675.735779,1107.914673 
	C681.880310,1107.975220 688.028076,1107.718628 694.500977,1107.380249 
	C725.554626,1107.289673 756.315613,1106.560669 786.999207,1107.780029 
	C818.396973,1109.028076 842.528809,1132.953735 847.354065,1165.576660 
z"/>
<path fill="#89C1EB" opacity="1.000000" stroke="none" 
	d="
M852.557739,1315.010254 
	C853.696533,1315.543823 854.612610,1316.527466 855.601929,1317.689697 
	C855.500061,1340.667725 856.012207,1363.499023 854.966492,1386.258545 
	C853.799072,1411.667969 832.683411,1430.388062 805.665955,1430.789429 
	C781.699158,1431.145630 757.722290,1430.820801 733.165344,1430.345703 
	C731.334778,1429.618652 730.089844,1429.107422 728.842468,1429.101562 
	C711.944824,1429.022339 695.046631,1429.049194 678.148987,1428.968994 
	C671.669739,1428.938232 665.276489,1427.135742 659.049683,1426.553955 
	C640.625916,1424.832275 621.992676,1425.351929 603.090210,1424.720215 
	C592.726746,1424.286743 582.714722,1424.096558 572.701843,1424.016479 
	C571.654114,1424.008057 570.601196,1424.651245 569.182739,1424.993164 
	C567.281616,1424.994385 565.748474,1424.994629 564.215271,1424.994873 
	C560.606812,1424.636230 556.998535,1423.969116 553.389771,1423.966431 
	C518.476929,1423.939819 483.564056,1424.039551 448.651184,1424.044922 
	C446.351471,1424.045288 444.051666,1423.568481 441.381775,1423.125977 
	C446.832581,1422.916382 452.653534,1422.872437 458.474487,1422.875854 
	C523.291016,1422.912842 588.107544,1422.956665 652.924072,1422.999512 
	C698.354919,1423.029541 743.785828,1423.064819 789.216675,1423.088257 
	C797.516296,1423.092529 805.816772,1423.116211 814.115417,1423.017212 
	C832.458923,1422.798462 845.182068,1407.933228 848.846985,1391.731689 
	C852.945435,1373.613647 853.108093,1355.140503 852.768860,1336.667603 
	C852.639038,1329.598267 852.480530,1322.529541 852.557739,1315.010254 
z"/>
<path fill="#89C1EB" opacity="1.000000" stroke="none" 
	d="
M538.898621,1556.248657 
	C535.420898,1563.389038 530.673218,1569.223755 523.461975,1573.086792 
	C510.061066,1580.265747 493.605408,1576.931885 484.140686,1564.170898 
	C483.019989,1560.614868 481.725433,1557.737183 481.027924,1554.721313 
	C478.927368,1545.639526 479.114502,1536.732422 483.495911,1528.183960 
	C487.522858,1520.327026 491.362122,1512.373779 495.530151,1504.810303 
	C496.915039,1513.007568 498.038391,1520.859985 499.197174,1528.707031 
	C500.307526,1536.225830 500.891571,1543.882080 502.752167,1551.212646 
	C504.440613,1557.864990 509.747711,1562.277832 516.233826,1563.860474 
	C523.482056,1565.629272 529.111023,1561.746704 533.222778,1555.978516 
	C534.818298,1553.740234 535.640991,1550.950928 537.071411,1548.581299 
	C537.832153,1549.793213 538.337280,1550.836304 538.842407,1551.879517 
	C538.806702,1552.862427 538.771057,1553.845337 538.840759,1555.550903 
	C538.946106,1556.273560 538.898621,1556.248657 538.898621,1556.248657 
z"/>
<path fill="#89C1EB" opacity="1.000000" stroke="none" 
	d="
M663.613342,1543.726562 
	C664.870239,1560.031982 650.592407,1575.579712 633.596375,1576.778687 
	C612.974609,1578.233521 591.138855,1558.206909 600.683044,1533.466797 
	C605.216125,1521.716553 610.423279,1510.226562 615.309082,1498.612061 
	C617.046997,1494.480469 618.737671,1490.329102 621.093750,1486.040771 
	C622.838074,1485.533936 623.938599,1485.172974 625.063293,1485.214844 
	C623.437561,1490.652832 621.637512,1495.645508 620.196960,1500.739868 
	C619.400696,1503.555786 618.539429,1506.623291 618.881531,1509.434448 
	C619.576355,1515.145386 621.139771,1520.745850 622.214905,1526.416504 
	C623.823608,1534.901611 622.187500,1537.793579 614.154053,1539.679810 
	C609.896973,1540.679321 608.152832,1543.371338 608.631958,1547.141235 
	C610.102661,1558.713257 614.361633,1566.733887 627.990723,1567.673340 
	C638.800781,1568.418335 649.481934,1567.188599 655.458374,1556.065918 
	C657.593994,1552.091431 659.047913,1547.750610 661.095459,1543.643066 
	C662.123169,1543.714966 662.868225,1543.720703 663.613342,1543.726562 
z"/>
<path fill="#89C1EB" opacity="1.000000" stroke="none" 
	d="
M779.880432,1535.588623 
	C786.490967,1550.239990 777.822144,1568.458008 761.392578,1574.552368 
	C739.976990,1582.496216 721.409302,1567.269653 718.014404,1550.255859 
	C716.172791,1541.026733 718.842285,1533.191406 721.855408,1525.234985 
	C726.841431,1512.068604 732.408752,1499.121826 737.767517,1486.097534 
	C738.203979,1485.036743 738.919189,1484.090576 739.992432,1483.175415 
	C741.289307,1483.490601 742.098633,1483.721558 742.960449,1484.338501 
	C742.280212,1486.925171 741.745056,1489.216675 740.782227,1491.311646 
	C735.083496,1503.709961 732.421631,1516.766113 731.980286,1530.344971 
	C731.938477,1531.629639 731.358459,1532.887085 731.180481,1534.178223 
	C730.420227,1539.692749 728.936523,1545.261353 729.260864,1550.718506 
	C729.486389,1554.511963 731.220703,1559.599365 734.049316,1561.568237 
	C740.071228,1565.759888 746.853088,1567.958252 755.078552,1566.427856 
	C771.076111,1563.451172 777.257874,1557.510742 777.774536,1541.758301 
	C778.658508,1539.588013 779.269470,1537.588379 779.880432,1535.588623 
z"/>
<path fill="#30D6F8" opacity="1.000000" stroke="none" 
	d="
M603.441406,1424.994873 
	C621.992676,1425.351929 640.625916,1424.832275 659.049683,1426.553955 
	C665.276489,1427.135742 671.669739,1428.938232 678.148987,1428.968994 
	C695.046631,1429.049194 711.944824,1429.022339 728.842468,1429.101562 
	C730.089844,1429.107422 731.334778,1429.618652 732.696045,1430.237793 
	C711.676941,1430.661011 690.542542,1430.821411 669.408203,1430.807373 
	C603.981506,1430.763794 538.554749,1430.672974 473.128174,1430.542114 
	C466.311798,1430.528442 459.493805,1430.177612 452.682190,1429.861572 
	C451.185059,1429.792236 449.711975,1429.204712 448.227783,1428.855835 
	C448.219757,1428.356445 448.211731,1427.857056 448.203674,1427.357666 
	C450.810394,1426.838379 453.421448,1425.855103 456.023041,1425.879639 
	C467.809723,1425.990356 479.597595,1426.734497 491.377930,1426.604980 
	C515.148315,1426.343628 538.914062,1425.663208 563.448486,1425.075195 
	C565.748474,1424.994629 567.281616,1424.994385 569.569824,1425.203125 
	C581.363708,1425.272949 592.402588,1425.133911 603.441406,1424.994873 
z"/>
<path fill="#30D6F8" opacity="1.000000" stroke="none" 
	d="
M495.284058,1504.463013 
	C491.362122,1512.373779 487.522858,1520.327026 483.495911,1528.183960 
	C479.114502,1536.732422 478.927368,1545.639526 481.027924,1554.721313 
	C481.725433,1557.737183 483.019989,1560.614868 484.039001,1563.709595 
	C481.813721,1560.663086 478.773682,1557.750977 477.524170,1554.207520 
	C474.004578,1544.226074 476.531342,1534.619629 480.653412,1525.265869 
	C486.201782,1512.675537 491.479279,1499.964600 497.138824,1487.425415 
	C498.601776,1484.184204 500.649567,1480.983276 503.148468,1478.483398 
	C507.277771,1474.352051 510.959839,1474.561157 514.399109,1479.404663 
	C517.531250,1483.815430 520.004639,1488.786011 522.179138,1493.767090 
	C527.822632,1506.694702 533.321228,1519.692871 538.512695,1532.807373 
	C541.022705,1539.147705 542.494507,1545.817383 538.912720,1552.163086 
	C538.337280,1550.836304 537.832153,1549.793213 537.107910,1548.194092 
	C536.752380,1544.999390 537.233459,1542.137817 536.374878,1539.759888 
	C532.146851,1528.048584 527.705872,1516.408203 523.054199,1504.857910 
	C520.075195,1497.460815 516.819885,1490.151367 513.194885,1483.054688 
	C512.272156,1481.248169 509.567841,1479.677368 507.491516,1479.393921 
	C506.293213,1479.230225 504.110229,1481.604736 503.410858,1483.273071 
	C500.487457,1490.246460 497.957947,1497.385010 495.284058,1504.463013 
z"/>
<path fill="#89C1EB" opacity="1.000000" stroke="none" 
	d="
M694.810303,1452.847046 
	C699.313538,1464.217285 697.023254,1472.609863 688.320679,1477.208008 
	C684.460022,1479.247681 680.905823,1479.125732 677.390564,1476.036011 
	C670.033691,1469.569824 668.652771,1464.966919 671.947998,1455.852905 
	C673.524780,1451.491943 675.179565,1447.158813 676.827332,1442.823853 
	C678.100586,1439.474243 679.719055,1436.283691 683.902161,1436.265259 
	C688.033020,1436.247070 689.940979,1439.283569 691.257141,1442.641357 
	C692.522705,1445.870117 693.548645,1449.192871 694.810303,1452.847046 
M678.662170,1448.338135 
	C679.367126,1450.080444 680.603149,1451.800415 680.677124,1453.569092 
	C680.896667,1458.817139 684.107544,1461.705078 688.230652,1463.803589 
	C691.579102,1465.507690 694.448303,1463.790039 693.704590,1460.432739 
	C692.460388,1454.815552 690.736877,1449.272461 688.737549,1443.875122 
	C688.168457,1442.338867 685.737671,1440.255981 684.530090,1440.473633 
	C682.574219,1440.826050 680.734131,1442.692261 679.220581,1444.277832 
	C678.406311,1445.130737 678.373230,1446.729614 677.598328,1448.262451 
	C677.658936,1448.614380 677.719604,1448.966431 677.780212,1449.318359 
	C677.862122,1448.886475 677.943970,1448.454590 678.662170,1448.338135 
M675.586914,1454.415405 
	C675.642212,1454.202881 675.697510,1453.990479 675.752808,1453.777954 
	C675.619446,1453.914551 675.486084,1454.051025 675.586914,1454.415405 
M676.539124,1451.641357 
	C676.539124,1451.641357 676.636475,1451.473267 676.636475,1451.473267 
	C676.636475,1451.473267 676.457581,1451.494995 676.539124,1451.641357 
z"/>
<path fill="#89C1EB" opacity="1.000000" stroke="none" 
	d="
M580.945557,1477.551758 
	C571.415405,1479.513428 564.578186,1473.703125 564.292847,1463.361328 
	C564.046082,1454.413818 567.279907,1446.419189 572.428772,1439.257690 
	C574.963562,1435.731812 580.182739,1435.853027 581.827209,1439.827393 
	C584.975586,1447.436401 588.153015,1455.253784 589.552856,1463.292236 
	C590.572571,1469.147949 587.138489,1474.513916 580.945557,1477.551758 
M586.394775,1456.333496 
	C584.506226,1451.948364 582.839478,1447.443848 580.586121,1443.255005 
	C579.957153,1442.085938 577.584595,1441.337280 576.032349,1441.369873 
	C575.047180,1441.390381 573.225647,1443.257568 573.278748,1444.213257 
	C573.598511,1449.958252 573.521667,1456.038574 577.784180,1460.568726 
	C579.890930,1462.807739 582.863770,1464.231812 585.444702,1466.024780 
	C585.827759,1463.067261 586.210754,1460.109741 586.394775,1456.333496 
z"/>
<path fill="#89C1EB" opacity="1.000000" stroke="none" 
	d="
M408.724091,1370.200684 
	C409.326416,1363.865479 413.826355,1366.458130 416.794678,1366.077026 
	C420.026642,1365.662231 419.822327,1368.159424 420.023193,1370.382080 
	C420.572815,1376.463013 421.241333,1382.534180 421.933990,1388.601074 
	C423.198212,1399.674194 431.548798,1405.031250 439.897644,1410.822998 
	C438.770721,1411.219360 437.463074,1411.314331 436.185760,1411.407104 
	C435.470276,1414.156494 434.792419,1416.761475 434.071045,1419.754517 
	C424.121002,1417.198486 418.376587,1409.788452 413.865692,1401.156006 
	C408.865387,1391.586426 408.498322,1381.176514 408.724091,1370.200684 
z"/>
<path fill="#F4EEF3" opacity="1.000000" stroke="none" 
	d="
M846.771667,1477.785034 
	C850.517212,1473.813232 853.401550,1476.916748 854.441223,1479.771606 
	C857.937073,1489.370728 860.687866,1499.241089 863.291931,1509.386963 
	C859.628235,1514.654663 858.910217,1514.666260 854.290344,1510.696533 
	C852.770325,1509.390381 850.853210,1508.546509 849.117615,1507.491211 
	C848.829224,1507.859741 848.540771,1508.228394 848.252380,1508.596924 
	C848.923401,1511.431396 849.594482,1514.265869 850.671509,1518.815186 
	C847.809692,1517.351929 845.229004,1516.772095 843.862244,1515.161743 
	C841.762878,1512.688232 838.865234,1509.284790 839.220215,1506.671753 
	C839.948181,1501.313843 842.610107,1496.218628 844.487183,1490.983643 
	C845.126282,1491.415527 845.648804,1491.768677 844.999939,1491.330078 
	C846.029053,1487.652710 847.149780,1484.028809 847.984314,1480.339966 
	C848.147949,1479.616699 847.204468,1478.643188 846.771667,1477.785034 
z"/>
<path fill="#30D6F8" opacity="1.000000" stroke="none" 
	d="
M417.804626,1482.595947 
	C420.740112,1490.667603 424.448273,1498.556396 426.413452,1506.857666 
	C428.814514,1517.000366 419.790710,1526.873779 410.465485,1525.519897 
	C399.897217,1523.985474 393.920837,1512.938965 397.918335,1502.798706 
	C400.403564,1496.494629 402.408051,1490.000977 405.058472,1483.503296 
	C405.960236,1484.000488 406.431885,1484.586792 406.845886,1485.523438 
	C406.335052,1487.510986 405.881866,1489.148438 405.182404,1491.021729 
	C403.395630,1495.463501 401.922241,1499.695312 400.297333,1503.868286 
	C398.350311,1508.868652 399.972229,1513.367310 402.211151,1517.707275 
	C404.477051,1522.099365 411.435730,1524.116577 414.719269,1522.375122 
	C412.451569,1516.052856 409.851837,1510.007568 408.198486,1503.713623 
	C407.306000,1500.315796 408.031860,1496.492798 408.193237,1492.588745 
	C409.194672,1492.520386 410.637024,1492.549683 410.755981,1492.961426 
	C411.161987,1494.366577 411.045685,1495.913452 411.229767,1497.393555 
	C412.212219,1505.293579 414.286102,1512.743652 420.019318,1519.433716 
	C423.589050,1513.841064 426.421143,1509.294067 423.235687,1502.855103 
	C420.477295,1497.279175 418.980286,1491.079468 417.011047,1484.895020 
	C417.332428,1483.955200 417.568542,1483.275513 417.804626,1482.595947 
z"/>
<path fill="#89C1EB" opacity="1.000000" stroke="none" 
	d="
M846.467529,1477.933716 
	C847.204468,1478.643188 848.147949,1479.616699 847.984314,1480.339966 
	C847.149780,1484.028809 846.029053,1487.652710 844.999939,1491.330078 
	C845.648804,1491.768677 845.126282,1491.415527 844.487183,1490.983643 
	C842.610107,1496.218628 839.948181,1501.313843 839.220215,1506.671753 
	C838.865234,1509.284790 841.762878,1512.688232 843.862244,1515.161743 
	C845.229004,1516.772095 847.809692,1517.351929 850.671509,1518.815186 
	C849.594482,1514.265869 848.923401,1511.431396 848.252380,1508.596924 
	C848.540771,1508.228394 848.829224,1507.859741 849.117615,1507.491211 
	C850.853210,1508.546509 852.770325,1509.390381 854.290344,1510.696533 
	C858.910217,1514.666260 859.628235,1514.654663 863.216736,1509.791504 
	C863.623779,1518.337402 857.196045,1525.425781 849.629028,1525.194092 
	C843.138733,1524.995361 834.874329,1515.926636 836.453308,1508.510986 
	C838.659668,1498.148804 842.832092,1488.205078 846.467529,1477.933716 
z"/>
<path fill="#30D6F8" opacity="1.000000" stroke="none" 
	d="
M663.738647,1543.268677 
	C662.868225,1543.720703 662.123169,1543.714966 661.081299,1543.303223 
	C660.477539,1541.440674 660.393250,1539.891235 659.829834,1538.541504 
	C652.373169,1520.680908 644.975647,1502.792725 637.197205,1485.072266 
	C636.108826,1482.592529 633.364624,1479.893799 630.861816,1479.205444 
	C627.221069,1478.203979 626.452698,1482.304321 625.039124,1484.811890 
	C623.938599,1485.172974 622.838074,1485.533936 621.391113,1485.850830 
	C621.082642,1485.481079 620.994995,1485.025879 621.177368,1484.848877 
	C624.408752,1481.710815 627.265259,1476.794556 631.031860,1475.947021 
	C635.902832,1474.850830 638.957031,1480.221680 640.798828,1484.422485 
	C648.366150,1501.683350 655.634766,1519.076050 662.871460,1536.479248 
	C663.668457,1538.395996 663.555054,1540.691162 663.738647,1543.268677 
z"/>
<path fill="#30D6F8" opacity="1.000000" stroke="none" 
	d="
M779.813110,1534.898193 
	C779.269470,1537.588379 778.658508,1539.588013 777.785522,1541.350830 
	C769.622803,1521.488770 761.836853,1501.816040 753.736145,1482.273804 
	C751.850403,1477.724487 747.258972,1478.130737 743.439453,1482.886475 
	C742.995911,1483.289551 742.904602,1483.593018 742.955078,1483.953613 
	C742.942017,1483.964233 742.908020,1483.952515 742.908020,1483.952515 
	C742.098633,1483.721558 741.289307,1483.490601 740.294434,1482.997559 
	C743.036926,1480.337158 745.849304,1476.166016 748.920593,1475.965698 
	C753.279114,1475.681396 756.718079,1479.388062 758.623596,1483.959717 
	C765.177979,1499.684937 771.947693,1515.320435 778.798706,1531.334106 
	C778.962036,1531.678101 778.891663,1531.571411 778.891663,1531.571411 
	C779.176392,1532.450195 779.461121,1533.329102 779.813110,1534.898193 
z"/>
<path fill="#89C1EB" opacity="1.000000" stroke="none" 
	d="
M303.932983,1654.284424 
	C303.927429,1652.240723 303.927429,1650.634888 303.927429,1649.028931 
	C304.414734,1648.851196 304.902039,1648.673462 305.389343,1648.495605 
	C306.646362,1650.680420 307.903351,1652.865234 309.351837,1655.382935 
	C312.687469,1655.285278 316.018829,1656.742065 316.324890,1661.061157 
	C316.617432,1665.189941 313.177917,1667.197754 309.815247,1668.143921 
	C306.513428,1669.073120 304.410126,1667.079956 304.148560,1663.666626 
	C303.921051,1660.697266 303.996796,1657.704590 303.932983,1654.284424 
M311.259491,1659.656006 
	C310.580139,1658.359131 309.900818,1657.062256 309.221466,1655.765381 
	C308.986969,1655.865479 308.752441,1655.965576 308.517944,1656.065552 
	C308.517944,1658.573975 308.517944,1661.082397 308.517944,1663.590820 
	C308.960327,1663.826904 309.402710,1664.062988 309.845093,1664.299194 
	C310.563843,1662.949219 311.282593,1661.599121 311.259491,1659.656006 
z"/>
<path fill="#89C1EB" opacity="1.000000" stroke="none" 
	d="
M417.748810,1482.232422 
	C417.568542,1483.275513 417.332428,1483.955200 416.807068,1484.592773 
	C415.012360,1483.027100 413.702698,1481.122803 411.892548,1480.191650 
	C411.280426,1479.876831 409.336121,1481.954956 408.130157,1483.078369 
	C407.563141,1483.606812 407.302856,1484.464600 406.903564,1485.173096 
	C406.431885,1484.586792 405.960236,1484.000488 405.273376,1483.229980 
	C406.945923,1480.644287 408.833649,1478.242920 410.721405,1475.841553 
	C413.045258,1477.850708 415.369110,1479.859863 417.748810,1482.232422 
z"/>
<path fill="#89C1EB" opacity="1.000000" stroke="none" 
	d="
M297.034882,1652.860107 
	C296.347809,1654.028198 295.672729,1654.721191 294.997620,1655.414185 
	C294.398407,1654.633911 293.324585,1653.878784 293.281860,1653.069214 
	C293.092773,1649.486938 293.200043,1645.889038 293.200043,1641.567749 
	C299.616455,1643.881104 296.375488,1648.833008 297.034882,1652.860107 
z"/>
<path fill="#89C1EB" opacity="1.000000" stroke="none" 
	d="
M778.961487,1531.560547 
	C778.891663,1531.571411 778.962036,1531.678101 778.950806,1531.712402 
	C778.939636,1531.746704 779.031311,1531.549683 778.961487,1531.560547 
z"/>
<path fill="#30D6F8" opacity="1.000000" stroke="none" 
	d="
M539.068359,1556.211914 
	C538.898621,1556.248657 538.946106,1556.273560 538.928833,1556.283813 
	C539.020386,1556.254395 539.129211,1556.214722 539.068359,1556.211914 
z"/>
<path fill="#30D6F8" opacity="1.000000" stroke="none" 
	d="
M470.900208,1230.546021 
	C491.916992,1218.562622 514.101868,1216.221924 537.397461,1222.258057 
	C545.102722,1224.254395 552.923340,1225.813477 560.713257,1227.468506 
	C562.446594,1227.836670 564.273193,1227.765991 564.893738,1227.811768 
	C563.688843,1219.874634 561.879517,1212.169800 561.467712,1204.390991 
	C560.531738,1186.708252 569.152161,1173.456909 582.645813,1163.087646 
	C605.213379,1145.745361 630.564636,1141.279297 658.186584,1146.974731 
	C674.058411,1150.247559 688.822693,1155.838257 702.317017,1165.807983 
	C703.064575,1166.437988 703.509033,1166.606689 703.953552,1166.775391 
	C703.953552,1166.775391 704.108643,1166.879883 704.226318,1167.129395 
	C704.516907,1167.620117 704.746338,1167.700684 705.032349,1167.620483 
	C705.032349,1167.620483 705.221619,1167.753906 705.275513,1168.158447 
	C706.270386,1169.091431 707.211426,1169.619873 708.152466,1170.148315 
	C708.152466,1170.148315 708.548340,1170.396484 708.647705,1170.872559 
	C711.120972,1173.492310 713.494751,1175.635986 715.868591,1177.779785 
	C715.868591,1177.779785 716.067017,1177.920898 716.178589,1178.184937 
	C716.429016,1178.688721 716.635925,1178.791138 716.911011,1178.756104 
	C717.034546,1178.931274 717.158081,1179.106567 717.387878,1179.743896 
	C717.494141,1180.205933 717.738831,1180.510620 717.738831,1180.510620 
	C717.738831,1180.510620 718.129456,1180.488037 718.129456,1180.488037 
	C718.129456,1180.488037 718.342834,1180.655151 718.353027,1181.099243 
	C720.381592,1184.111084 720.489197,1188.511108 725.112183,1188.581299 
	C725.112183,1188.581299 725.274292,1188.734985 725.262207,1189.172119 
	C727.229858,1193.689087 729.209534,1197.768921 731.050903,1201.563843 
	C726.632629,1205.965088 722.627258,1209.845093 718.764709,1213.862427 
	C717.411743,1215.269653 716.208374,1216.905762 715.282593,1218.623779 
	C711.051819,1226.475708 711.096069,1226.499512 702.624512,1225.256470 
	C702.144104,1224.730225 701.872314,1224.428467 701.653381,1223.782715 
	C700.012634,1221.264038 698.474609,1221.203369 696.760376,1223.821045 
	C694.839722,1224.934570 693.288940,1226.002563 691.438599,1227.238037 
	C689.370667,1231.894897 687.602295,1236.384033 686.060791,1240.484619 
	C686.698303,1241.461060 687.703857,1242.972290 687.410889,1244.164307 
	C686.429810,1248.156372 687.747314,1250.938354 691.032959,1253.010742 
	C691.031006,1252.968262 690.946228,1252.965088 691.120728,1253.223389 
	C692.988770,1254.022827 694.682251,1254.563843 696.443481,1255.519287 
	C695.118713,1256.630127 693.781372,1257.753052 692.323181,1257.941650 
	C688.211670,1258.473511 685.940552,1259.844116 686.782471,1264.673340 
	C687.162964,1266.856079 686.544556,1269.675415 685.354797,1271.558716 
	C683.663879,1274.235596 681.056580,1276.343750 678.784180,1278.638916 
	C677.645813,1279.788574 676.354187,1281.756104 675.180115,1281.721436 
	C671.503723,1281.612671 670.495850,1284.219238 668.927002,1286.516235 
	C667.715698,1288.289551 666.464905,1290.131958 664.867981,1291.527466 
	C660.612976,1295.245605 657.359924,1299.738647 651.389709,1301.990601 
	C647.055115,1303.625488 644.216125,1309.342407 640.832947,1313.343018 
	C638.486633,1316.117676 636.674927,1319.495605 632.191833,1319.118408 
	C631.584595,1319.067383 630.614258,1319.759277 630.301270,1320.361328 
	C628.191162,1324.420654 626.794739,1329.003174 624.036072,1332.532227 
	C620.996277,1336.420898 617.221985,1340.330933 612.895996,1342.462891 
	C607.878967,1344.935547 601.944641,1346.430664 596.351746,1346.613647 
	C590.207703,1346.814697 583.881042,1352.383423 578.024109,1346.183838 
	C577.594666,1346.837036 577.404785,1347.101440 577.240051,1347.380737 
	C576.367493,1348.859863 575.501221,1350.342651 574.632812,1351.824219 
	C574.108459,1350.089966 573.458008,1348.381836 573.089844,1346.615112 
	C572.567139,1344.105835 572.252197,1341.553345 571.721191,1338.689087 
	C570.927612,1336.685547 570.353516,1334.968018 569.576904,1333.347534 
	C567.645874,1329.318726 564.459595,1327.999634 559.926025,1329.211426 
	C559.452271,1329.446899 559.240723,1329.705200 559.021240,1329.985107 
	C559.013306,1330.006592 558.972107,1330.027100 558.654846,1330.154419 
	C557.325806,1331.574707 555.886108,1332.718262 555.373779,1334.185669 
	C552.642700,1342.006836 550.421082,1349.871094 555.101685,1357.862183 
	C556.067017,1359.510376 557.196472,1361.823486 556.741638,1363.393066 
	C555.586060,1367.380493 557.528198,1368.827271 560.650513,1369.887329 
	C534.222961,1369.880005 507.795349,1369.911377 481.367950,1369.849609 
	C467.183319,1369.816406 453.984558,1366.805420 443.393311,1356.496948 
	C435.507782,1348.821899 429.682373,1339.889771 426.871613,1328.342163 
	C423.789795,1310.616699 425.858704,1293.916626 431.802002,1278.189209 
	C438.652893,1260.060059 450.329498,1244.999634 466.754486,1234.064087 
	C467.514404,1233.558105 467.988861,1232.623291 468.596375,1231.888306 
	C468.987762,1231.683472 469.379150,1231.478638 470.167603,1231.090820 
	C470.746521,1230.852295 470.858368,1230.731689 470.900208,1230.546021 
M494.174347,1301.562744 
	C494.323486,1301.402832 494.472595,1301.242920 494.381165,1301.205933 
	C494.381165,1301.205933 494.264984,1300.880615 494.264984,1300.880615 
	C494.264984,1300.880615 494.548584,1300.772705 495.005737,1300.048584 
	C495.839142,1296.860352 497.322510,1293.671997 497.321564,1290.484009 
	C497.320587,1287.349609 495.813049,1284.215576 494.845795,1280.383667 
	C493.510681,1278.654541 492.175537,1276.925293 490.476379,1274.559204 
	C487.978363,1275.293213 484.497833,1275.237549 483.159119,1276.903442 
	C478.357788,1282.877563 475.843781,1289.772461 478.496887,1297.835327 
	C478.177063,1301.786377 480.015350,1304.597656 483.548218,1305.940552 
	C487.294708,1307.364746 490.699493,1306.574707 493.052612,1303.021240 
	C493.052612,1303.021240 492.986511,1303.058960 493.029572,1302.587036 
	C493.226562,1302.314575 493.491852,1302.158325 494.174347,1301.562744 
M629.799927,1297.637695 
	C629.675293,1297.312622 629.444763,1297.105103 628.734070,1296.426880 
	C624.316772,1290.675171 620.905762,1290.569702 616.430420,1296.311523 
	C611.404053,1301.626831 611.347046,1308.515137 611.230042,1315.043335 
	C611.124817,1320.913330 617.126587,1324.659790 622.915710,1323.263184 
	C629.934021,1321.569946 634.450500,1308.973633 630.802490,1301.145020 
	C630.802490,1301.145020 630.810852,1301.078247 630.996643,1300.401611 
	C630.604736,1299.654175 630.212830,1298.906738 629.934570,1298.087158 
	C629.934570,1298.087158 629.803955,1298.119629 629.799927,1297.637695 
M683.910706,1165.536133 
	C679.228638,1157.884644 677.049988,1157.404785 671.948303,1163.202026 
	C668.637756,1168.750122 667.063293,1174.634888 668.891846,1181.023193 
	C670.524353,1186.726929 673.071411,1187.648804 679.104858,1184.685181 
	C677.004700,1181.552246 674.920166,1178.442627 672.835632,1175.333130 
	C673.133179,1174.986328 673.430664,1174.639526 673.728210,1174.292847 
	C675.545532,1174.831665 677.399597,1175.271606 679.172546,1175.930176 
	C682.884155,1177.308960 684.929260,1176.360474 684.870544,1171.275269 
	C684.761414,1169.860474 684.652222,1168.445801 684.670044,1166.690308 
	C684.619080,1166.415771 684.455017,1166.260986 683.910706,1165.536133 
M618.107666,1155.756104 
	C617.453064,1162.325439 621.360168,1166.241699 626.653381,1170.415039 
	C628.108582,1168.151123 629.404846,1166.134399 630.781433,1163.297241 
	C630.072998,1160.847778 629.364624,1158.398438 628.633362,1155.623657 
	C628.514893,1155.418823 628.337708,1155.306152 627.930237,1154.544556 
	C625.984314,1153.415283 624.123718,1151.712036 622.055664,1151.404419 
	C621.055298,1151.255737 619.665222,1153.728638 618.107666,1155.756104 
M570.256775,1257.615845 
	C570.141357,1257.151001 570.025879,1256.686035 569.853394,1255.375610 
	C569.260010,1250.292358 568.418579,1245.328003 563.458923,1241.619873 
	C561.224426,1239.329346 559.279358,1239.871704 557.130371,1242.664551 
	C556.992310,1242.802734 556.854309,1242.940918 556.085388,1243.210327 
	C554.058838,1247.311401 552.277588,1251.558350 549.947205,1255.478882 
	C546.596680,1261.115723 553.499329,1263.360718 553.698425,1267.808105 
	C553.749878,1268.959229 554.672729,1270.312866 555.595947,1271.109253 
	C556.375305,1271.781738 557.721497,1271.969604 558.839661,1272.048828 
	C566.356384,1272.579956 570.129456,1267.697388 569.825195,1257.868408 
	C569.825195,1257.868408 569.854248,1257.809448 570.256775,1257.615845 
M616.418579,1167.519043 
	C616.645630,1164.603638 616.872742,1161.688232 617.099792,1158.772949 
	C616.336365,1158.687134 615.572876,1158.601440 614.809448,1158.515747 
	C614.283325,1161.893188 613.666809,1165.261597 613.329224,1168.657837 
	C613.278809,1169.164307 614.539490,1169.801025 615.193726,1170.377563 
	C615.543274,1169.684937 615.892822,1168.992310 616.418579,1167.519043 
z"/>
<path fill="#89C1EB" opacity="1.000000" stroke="none" 
	d="
M571.848450,1339.019287 
	C572.252197,1341.553345 572.567139,1344.105835 573.089844,1346.615112 
	C573.458008,1348.381836 574.108459,1350.089966 574.632812,1351.824219 
	C575.501221,1350.342651 576.367493,1348.859863 577.240051,1347.380737 
	C577.404785,1347.101440 577.594666,1346.837036 578.024109,1346.183838 
	C583.881042,1352.383423 590.207703,1346.814697 596.351746,1346.613647 
	C601.944641,1346.430664 607.878967,1344.935547 612.895996,1342.462891 
	C617.221985,1340.330933 620.996277,1336.420898 624.036072,1332.532227 
	C626.794739,1329.003174 628.191162,1324.420654 630.301270,1320.361328 
	C630.614258,1319.759277 631.584595,1319.067383 632.191833,1319.118408 
	C636.674927,1319.495605 638.486633,1316.117676 640.832947,1313.343018 
	C644.216125,1309.342407 647.055115,1303.625488 651.389709,1301.990601 
	C657.359924,1299.738647 660.612976,1295.245605 664.867981,1291.527466 
	C666.464905,1290.131958 667.715698,1288.289551 668.927002,1286.516235 
	C670.495850,1284.219238 671.503723,1281.612671 675.180115,1281.721436 
	C676.354187,1281.756104 677.645813,1279.788574 678.784180,1278.638916 
	C681.056580,1276.343750 683.663879,1274.235596 685.354797,1271.558716 
	C686.544556,1269.675415 687.162964,1266.856079 686.782471,1264.673340 
	C685.940552,1259.844116 688.211670,1258.473511 692.323181,1257.941650 
	C693.781372,1257.753052 695.118713,1256.630127 696.672974,1255.395996 
	C697.326294,1254.472412 697.817810,1254.086548 697.723450,1254.160645 
	C695.751953,1253.812866 693.349121,1253.388916 690.946228,1252.965088 
	C690.946228,1252.965088 691.031006,1252.968262 690.864014,1252.667480 
	C689.076050,1248.535522 687.454956,1244.704468 685.833862,1240.873291 
	C687.602295,1236.384033 689.370667,1231.894897 691.629944,1227.533081 
	C693.422729,1230.142822 694.273376,1233.078003 696.167725,1234.966064 
	C697.719604,1236.512817 700.514465,1236.812744 702.758423,1237.665283 
	C703.268005,1235.678101 704.173767,1233.691772 704.178040,1231.703491 
	C704.182495,1229.630371 703.317810,1227.555176 702.833130,1225.480957 
	C711.096069,1226.499512 711.051819,1226.475708 715.282593,1218.623779 
	C716.208374,1216.905762 717.411743,1215.269653 718.764709,1213.862427 
	C722.627258,1209.845093 726.632629,1205.965088 731.050903,1201.563843 
	C729.209534,1197.768921 727.229858,1193.689087 725.326782,1189.263184 
	C729.299011,1195.374023 733.790710,1201.554443 736.943115,1208.355835 
	C741.094543,1217.312500 743.377502,1226.948486 741.831055,1236.958496 
	C741.286987,1240.480591 739.699768,1243.841553 738.417114,1247.807251 
	C744.303406,1247.431274 750.013855,1247.822754 755.346802,1246.586060 
	C772.382019,1242.635864 787.618408,1246.845947 801.867188,1255.894775 
	C805.900146,1258.456055 809.519348,1261.769043 812.962891,1265.113403 
	C814.557617,1266.662231 816.751343,1269.089600 813.130493,1271.206055 
	C812.852661,1271.368286 812.411255,1271.666016 812.430908,1271.861938 
	C813.466492,1282.177490 803.338745,1283.354492 798.309875,1288.460571 
	C791.748840,1295.122437 782.997375,1299.654907 776.584412,1306.425781 
	C771.778564,1311.500000 765.571350,1315.727661 762.950195,1322.822998 
	C762.304504,1324.570801 760.773499,1326.270996 759.206909,1327.351562 
	C752.018127,1332.309814 744.392578,1336.673218 737.459229,1341.953125 
	C729.999634,1347.634033 723.132324,1354.093506 716.024109,1360.233398 
	C715.668640,1360.540405 715.362183,1361.006592 715.233398,1361.455933 
	C714.662354,1363.448486 714.755310,1366.595581 713.521118,1367.238403 
	C710.701538,1368.707153 707.248962,1369.585327 704.047791,1369.602173 
	C656.583191,1369.852173 609.117676,1369.922119 561.151428,1369.960938 
	C557.528198,1368.827271 555.586060,1367.380493 556.741638,1363.393066 
	C557.196472,1361.823486 556.067017,1359.510376 555.101685,1357.862183 
	C550.421082,1349.871094 552.642700,1342.006836 555.373779,1334.185669 
	C555.886108,1332.718262 557.325806,1331.574707 558.687622,1330.579224 
	C559.569763,1336.436768 559.620667,1342.217407 564.752991,1345.978882 
	C565.806396,1346.750854 567.660889,1347.662720 568.487305,1347.235596 
	C569.881348,1346.515137 571.098816,1344.922363 571.729431,1343.419067 
	C572.258545,1342.157837 571.844727,1340.500977 571.848450,1339.019287 
M703.904907,1325.990845 
	C700.941956,1325.834839 697.436584,1325.016846 696.428162,1328.962158 
	C694.984741,1334.609009 699.649536,1344.854736 704.591919,1347.831177 
	C708.922424,1350.439209 711.856995,1349.087769 711.975708,1344.104980 
	C712.140930,1337.169067 709.919678,1331.053467 703.904907,1325.990845 
z"/>
<path fill="#110C22" opacity="1.000000" stroke="none" 
	d="
M590.077271,1409.706665 
	C587.613037,1409.506958 585.148743,1409.133545 582.684509,1409.133545 
	C541.889282,1409.133911 501.093964,1409.228516 460.298889,1409.162354 
	C454.832306,1409.153564 449.269012,1408.893433 443.921906,1407.861572 
	C433.535614,1405.857422 426.879700,1398.179810 425.768250,1387.611816 
	C425.333832,1383.481079 425.209534,1379.304321 425.213226,1375.148804 
	C425.214417,1373.822266 425.894226,1371.514404 426.594543,1371.379883 
	C427.949615,1371.119751 429.716949,1371.797119 431.002472,1372.589966 
	C437.319763,1376.486572 443.321503,1380.947144 449.845276,1384.441895 
	C456.638031,1388.080566 464.032410,1388.709106 471.913544,1388.330933 
	C488.195465,1387.549561 504.534546,1387.892578 520.850098,1387.894653 
	C541.162354,1387.897339 561.474670,1388.032471 581.786987,1388.075806 
	C583.315674,1388.078979 584.844849,1387.806396 586.373840,1387.661987 
	C586.399719,1387.151611 586.425659,1386.641235 586.451599,1386.130859 
	C584.520264,1385.892212 582.588989,1385.446533 580.657654,1385.445801 
	C549.022217,1385.434814 517.386780,1385.495483 485.751343,1385.484863 
	C483.112122,1385.484009 480.473022,1385.087646 478.051331,1384.577881 
	C479.333832,1384.176147 480.398926,1384.071655 481.463989,1383.967041 
	C539.690369,1384.041016 597.916809,1384.116943 656.143188,1384.187866 
	C688.251892,1384.227051 720.360535,1384.257568 753.103271,1384.719971 
	C753.937622,1385.410889 754.137939,1385.673828 753.747314,1385.761963 
	C724.576233,1384.500122 696.067871,1385.695068 667.556946,1386.808228 
	C667.564880,1387.612915 667.572754,1388.417480 667.580688,1389.222046 
	C680.584412,1389.222046 693.588196,1389.222046 706.874146,1389.414429 
	C736.151794,1389.756958 765.160400,1389.429199 794.137939,1390.227295 
	C813.042786,1390.748169 826.018250,1381.790161 836.615417,1367.569702 
	C836.289062,1376.873413 835.962646,1386.177246 835.445007,1395.773071 
	C829.700195,1402.788452 823.213013,1407.942993 814.056641,1408.498413 
	C808.435364,1408.839478 802.808838,1409.092163 796.717529,1409.266846 
	C731.485596,1409.134277 666.720642,1409.108521 601.955750,1409.129883 
	C597.996216,1409.131226 594.036743,1409.505737 590.077271,1409.706665 
z"/>
<path fill="#89C1EB" opacity="1.000000" stroke="none" 
	d="
M481.420654,1383.587402 
	C480.398926,1384.071655 479.333832,1384.176147 477.700928,1384.240479 
	C477.133057,1384.200317 476.639221,1384.180298 476.030518,1384.228027 
	C474.152313,1384.220703 472.882782,1384.165771 471.613251,1384.110962 
	C455.743134,1384.468018 443.198486,1376.675781 430.510834,1368.335571 
	C418.992950,1360.763794 413.393829,1349.600708 407.779236,1337.878052 
	C402.670654,1327.212036 403.260437,1316.233398 404.965637,1305.331543 
	C408.291077,1284.071655 416.527496,1264.601440 428.444885,1246.684814 
	C430.079071,1244.227905 431.522003,1241.643921 433.362793,1239.044922 
	C434.553467,1240.742920 435.434845,1242.514648 436.513062,1244.682251 
	C442.346161,1247.115356 447.270142,1245.251953 452.457367,1240.706299 
	C456.828644,1236.875854 462.699799,1234.757080 468.251709,1231.884521 
	C467.988861,1232.623291 467.514404,1233.558105 466.754486,1234.064087 
	C450.329498,1244.999634 438.652893,1260.060059 431.802002,1278.189209 
	C425.858704,1293.916626 423.789795,1310.616699 426.811768,1327.987549 
	C427.565521,1332.407959 427.989014,1336.513184 429.280609,1340.324219 
	C437.002655,1363.109009 458.798279,1375.298706 482.717499,1372.600342 
	C490.610291,1371.709839 498.666992,1372.249756 506.649109,1372.210815 
	C507.337036,1372.207520 508.027710,1372.770996 509.473663,1373.400757 
	C507.988434,1374.148315 507.252075,1374.675293 506.432587,1374.903687 
	C503.343231,1375.764038 499.421631,1373.899048 497.803040,1379.252197 
	C497.289886,1380.949585 491.657440,1381.158203 488.339874,1381.928223 
	C486.043701,1382.461060 483.699890,1382.788574 481.420654,1383.587402 
M419.382355,1290.107910 
	C417.735718,1288.110840 415.122528,1286.322510 414.305145,1289.842407 
	C412.662170,1296.917603 411.967499,1304.238281 411.260956,1311.494629 
	C410.937469,1314.816650 413.016998,1315.444214 415.831726,1314.046753 
	C420.768646,1311.595337 423.860474,1305.749756 422.708160,1300.279785 
	C422.027527,1297.048828 420.776764,1293.937866 419.382355,1290.107910 
z"/>
<path fill="#89C1EB" opacity="1.000000" stroke="none" 
	d="
M590.066772,1409.982178 
	C594.036743,1409.505737 597.996216,1409.131226 601.955750,1409.129883 
	C666.720642,1409.108521 731.485596,1409.134277 796.938110,1409.421753 
	C798.050964,1409.917603 798.476135,1410.141113 798.901367,1410.364624 
	C798.897400,1410.707520 798.893433,1411.050537 798.889526,1411.393433 
	C795.155884,1411.393433 791.422241,1411.393433 787.688660,1411.393433 
	C787.709351,1411.823730 787.730103,1412.254150 787.750854,1412.684448 
	C794.561340,1413.038574 801.371765,1413.392578 808.182251,1413.746582 
	C803.540955,1413.936035 798.899658,1414.292480 794.258423,1414.290161 
	C730.313477,1414.258789 666.368591,1414.177979 601.639160,1413.806885 
	C597.924866,1413.278442 594.995117,1413.052368 592.065369,1412.826294 
	C591.395630,1411.970093 590.725952,1411.113770 590.066772,1409.982178 
z"/>
<path fill="#89C1EB" opacity="1.000000" stroke="none" 
	d="
M836.637817,1367.356689 
	C826.018250,1381.790161 813.042786,1390.748169 794.137939,1390.227295 
	C765.160400,1389.429199 736.151794,1389.756958 707.091309,1389.391602 
	C713.177368,1389.173462 719.328491,1389.168701 725.479675,1389.168091 
	C731.797241,1389.167603 738.121277,1389.348389 744.430542,1389.120972 
	C750.224060,1388.912231 756.222839,1390.305542 761.826904,1388.184082 
	C761.828064,1387.601807 761.829224,1387.019409 761.830383,1386.437012 
	C759.333008,1386.270386 756.835571,1386.103638 754.338196,1385.936890 
	C754.137939,1385.673828 753.937622,1385.410889 753.598999,1384.674072 
	C767.542908,1384.098511 781.673157,1383.230347 795.693726,1384.109985 
	C809.794678,1384.994385 820.733032,1379.978760 830.348267,1370.364990 
	C831.937317,1368.776245 834.530884,1368.192139 836.637817,1367.356689 
z"/>
<path fill="#30D6F8" opacity="1.000000" stroke="none" 
	d="
M808.575500,1413.746094 
	C801.371765,1413.392578 794.561340,1413.038574 787.750854,1412.684448 
	C787.730103,1412.254150 787.709351,1411.823730 787.688660,1411.393433 
	C791.422241,1411.393433 795.155884,1411.393433 798.889526,1411.393433 
	C798.893433,1411.050537 798.897400,1410.707520 798.901367,1410.364624 
	C798.476135,1410.141113 798.050964,1409.917603 797.405212,1409.539307 
	C802.808838,1409.092163 808.435364,1408.839478 814.056641,1408.498413 
	C823.213013,1407.942993 829.700195,1402.788452 835.337524,1396.298218 
	C830.774536,1408.678223 820.607849,1412.343262 808.575500,1413.746094 
z"/>
<path fill="#110C22" opacity="1.000000" stroke="none" 
	d="
M591.620972,1413.009155 
	C594.995117,1413.052368 597.924866,1413.278442 601.147217,1413.687500 
	C558.690796,1413.863770 515.941772,1413.860107 473.192719,1413.846069 
	C467.536957,1413.844116 461.881195,1413.788574 455.785645,1413.778442 
	C468.144104,1413.575928 480.941986,1413.190918 493.740631,1413.161499 
	C526.219116,1413.086792 558.697876,1413.171265 591.620972,1413.009155 
z"/>
<path fill="#89C1EB" opacity="1.000000" stroke="none" 
	d="
M796.577148,1344.078369 
	C796.391663,1339.247437 796.391663,1334.755493 796.391663,1330.263550 
	C796.813049,1330.196289 797.234375,1330.128906 797.655762,1330.061646 
	C798.921448,1336.784058 797.359497,1344.987793 806.207886,1347.822021 
	C803.779297,1350.712524 800.669678,1349.655396 796.577148,1344.078369 
z"/>
<path fill="#89C1EB" opacity="1.000000" stroke="none" 
	d="
M725.063232,1188.267822 
	C720.489197,1188.511108 720.381592,1184.111084 718.442017,1181.201416 
	C720.685364,1183.224487 722.849854,1185.589478 725.063232,1188.267822 
z"/>
<path fill="#89C1EB" opacity="1.000000" stroke="none" 
	d="
M715.775391,1177.482178 
	C713.494751,1175.635986 711.120972,1173.492310 708.816162,1171.034424 
	C711.150757,1172.875122 713.416443,1175.029907 715.775391,1177.482178 
z"/>
<path fill="#89C1EB" opacity="1.000000" stroke="none" 
	d="
M708.063110,1169.904785 
	C707.211426,1169.619873 706.270386,1169.091431 705.358032,1168.239624 
	C706.249084,1168.497803 707.111389,1169.079468 708.063110,1169.904785 
z"/>
<path fill="#89C1EB" opacity="1.000000" stroke="none" 
	d="
M435.694397,1237.011475 
	C435.652710,1236.423828 435.883789,1235.770874 436.398590,1235.065918 
	C436.443909,1235.657959 436.205566,1236.302124 435.694397,1237.011475 
z"/>
<path fill="#89C1EB" opacity="1.000000" stroke="none" 
	d="
M703.859619,1166.568970 
	C703.509033,1166.606689 703.064575,1166.437988 702.608032,1166.015625 
	C702.985840,1165.962158 703.375793,1166.162354 703.859619,1166.568970 
z"/>
<path fill="#89C1EB" opacity="1.000000" stroke="none" 
	d="
M716.877563,1178.581055 
	C716.635925,1178.791138 716.429016,1178.688721 716.266174,1178.269531 
	C716.506897,1178.073608 716.707520,1178.178955 716.877563,1178.581055 
z"/>
<path fill="#89C1EB" opacity="1.000000" stroke="none" 
	d="
M704.956970,1167.457764 
	C704.746338,1167.700684 704.516907,1167.620117 704.294556,1167.193359 
	C704.501221,1167.006104 704.713440,1167.101929 704.956970,1167.457764 
z"/>
<path fill="#89C1EB" opacity="1.000000" stroke="none" 
	d="
M470.757080,1230.474121 
	C470.858368,1230.731689 470.746521,1230.852295 470.438477,1230.899780 
	C470.257172,1230.632202 470.357727,1230.468994 470.757080,1230.474121 
z"/>
<path fill="#89C1EB" opacity="1.000000" stroke="none" 
	d="
M718.090515,1180.346436 
	C718.129456,1180.488037 717.738831,1180.510620 717.738831,1180.510620 
	C717.738831,1180.510620 717.494141,1180.205933 717.555054,1180.018555 
	C717.808960,1179.900024 717.954224,1180.024536 718.090515,1180.346436 
z"/>
<path fill="#110C22" opacity="1.000000" stroke="none" 
	d="
M683.564453,1122.639160 
	C713.494141,1122.608643 742.961792,1122.503662 772.425598,1122.789551 
	C781.682922,1122.879272 791.400879,1122.428833 800.086609,1125.000366 
	C819.838745,1130.848267 833.514709,1150.651855 833.980957,1171.189209 
	C834.011169,1172.520874 834.038818,1173.852417 834.185669,1176.087891 
	C834.234802,1201.904297 834.165833,1226.816772 834.096924,1251.729248 
	C831.870117,1250.008179 829.441772,1248.492188 827.448364,1246.533691 
	C811.610657,1230.974365 792.219971,1226.767090 770.893494,1228.601685 
	C768.571289,1228.801392 766.252563,1229.043457 763.929016,1229.224487 
	C763.458252,1229.261353 762.972961,1229.112061 762.367493,1229.031616 
	C761.363525,1222.465942 760.656006,1215.861450 759.302551,1209.392090 
	C756.325012,1195.160400 750.577637,1182.089111 740.758728,1171.246582 
	C731.950928,1161.520508 722.964783,1151.889038 713.351440,1142.977173 
	C702.732056,1133.132690 689.374695,1128.317871 675.408936,1125.190430 
	C673.506714,1124.764526 671.600281,1124.357422 669.695801,1123.941650 
	C669.711426,1123.533081 669.726990,1123.124390 669.742615,1122.715820 
	C674.195374,1122.715820 678.648132,1122.715820 683.564453,1122.639160 
z"/>
<path fill="#110C22" opacity="1.000000" stroke="none" 
	d="
M598.290222,1128.212646 
	C586.233398,1133.200928 574.571411,1138.134277 565.104187,1146.904785 
	C552.133179,1158.921143 540.781921,1172.043335 536.705139,1189.927246 
	C536.120667,1192.490845 535.888184,1195.134766 535.384216,1198.457520 
	C491.323883,1189.261597 454.328125,1199.186279 429.216949,1240.292480 
	C428.721893,1239.683105 428.226807,1239.073853 427.731750,1238.464478 
	C427.731750,1235.386841 427.723938,1232.309326 427.733032,1229.231689 
	C427.787720,1210.741089 427.243622,1192.223999 428.055786,1173.766602 
	C429.077545,1150.546387 440.713013,1133.841064 462.351318,1125.043335 
	C467.684235,1122.875122 474.064117,1122.644165 479.967346,1122.619141 
	C519.277100,1122.452148 558.588074,1122.583740 597.898682,1122.616455 
	C603.386475,1122.620972 608.874268,1122.617065 613.775391,1122.617065 
	C609.146729,1124.276611 603.891296,1126.160889 598.290222,1128.212646 
z"/>
<path fill="#F4EEF3" opacity="1.000000" stroke="none" 
	d="
M834.317017,1251.913330 
	C834.165833,1226.816772 834.234802,1201.904297 834.329468,1176.526367 
	C835.916504,1175.259888 837.477905,1174.458862 839.224243,1173.562866 
	C841.978516,1175.809082 837.547241,1181.649292 843.670044,1182.596069 
	C844.035339,1208.517944 844.035339,1234.499023 844.035339,1260.480225 
	C843.693420,1260.693481 843.351440,1260.906738 843.009521,1261.119995 
	C840.185364,1258.112427 837.361267,1255.104980 834.317017,1251.913330 
z"/>
<path fill="#110C22" opacity="1.000000" stroke="none" 
	d="
M471.840149,1384.445557 
	C472.882782,1384.165771 474.152313,1384.220703 475.896790,1384.203125 
	C474.936859,1384.347290 473.501923,1384.563721 471.840149,1384.445557 
z"/>
<path fill="#110C22" opacity="1.000000" stroke="none" 
	d="
M603.090210,1424.720215 
	C592.402588,1425.133911 581.363708,1425.272949 569.937744,1425.202148 
	C570.601196,1424.651245 571.654114,1424.008057 572.701843,1424.016479 
	C582.714722,1424.096558 592.726746,1424.286743 603.090210,1424.720215 
z"/>
<path fill="#F4EEF3" opacity="1.000000" stroke="none" 
	d="
M495.530151,1504.810303 
	C497.957947,1497.385010 500.487457,1490.246460 503.410858,1483.273071 
	C504.110229,1481.604736 506.293213,1479.230225 507.491516,1479.393921 
	C509.567841,1479.677368 512.272156,1481.248169 513.194885,1483.054688 
	C516.819885,1490.151367 520.075195,1497.460815 523.054199,1504.857910 
	C527.705872,1516.408203 532.146851,1528.048584 536.374878,1539.759888 
	C537.233459,1542.137817 536.752380,1544.999390 536.852295,1548.025391 
	C535.640991,1550.950928 534.818298,1553.740234 533.222778,1555.978516 
	C529.111023,1561.746704 523.482056,1565.629272 516.233826,1563.860474 
	C509.747711,1562.277832 504.440613,1557.864990 502.752167,1551.212646 
	C500.891571,1543.882080 500.307526,1536.225830 499.197174,1528.707031 
	C498.038391,1520.859985 496.915039,1513.007568 495.530151,1504.810303 
z"/>
<path fill="#F4EEF3" opacity="1.000000" stroke="none" 
	d="
M625.063293,1485.214844 
	C626.452698,1482.304321 627.221069,1478.203979 630.861816,1479.205444 
	C633.364624,1479.893799 636.108826,1482.592529 637.197205,1485.072266 
	C644.975647,1502.792725 652.373169,1520.680908 659.829834,1538.541504 
	C660.393250,1539.891235 660.477539,1541.440674 660.798706,1543.237183 
	C659.047913,1547.750610 657.593994,1552.091431 655.458374,1556.065918 
	C649.481934,1567.188599 638.800781,1568.418335 627.990723,1567.673340 
	C614.361633,1566.733887 610.102661,1558.713257 608.631958,1547.141235 
	C608.152832,1543.371338 609.896973,1540.679321 614.154053,1539.679810 
	C622.187500,1537.793579 623.823608,1534.901611 622.214905,1526.416504 
	C621.139771,1520.745850 619.576355,1515.145386 618.881531,1509.434448 
	C618.539429,1506.623291 619.400696,1503.555786 620.196960,1500.739868 
	C621.637512,1495.645508 623.437561,1490.652832 625.063293,1485.214844 
z"/>
<path fill="#F4EEF3" opacity="1.000000" stroke="none" 
	d="
M743.637024,1482.740601 
	C747.258972,1478.130737 751.850403,1477.724487 753.736145,1482.273804 
	C761.836853,1501.816040 769.622803,1521.488770 777.512451,1541.521362 
	C777.257874,1557.510742 771.076111,1563.451172 755.078552,1566.427856 
	C746.853088,1567.958252 740.071228,1565.759888 734.049316,1561.568237 
	C731.220703,1559.599365 729.486389,1554.511963 729.260864,1550.718506 
	C728.936523,1545.261353 730.420227,1539.692749 731.180481,1534.178223 
	C731.358459,1532.887085 731.938477,1531.629639 731.980286,1530.344971 
	C732.421631,1516.766113 735.083496,1503.709961 740.782227,1491.311646 
	C741.745056,1489.216675 742.280212,1486.925171 742.960449,1484.338501 
	C742.908020,1483.952515 742.942017,1483.964233 743.200745,1483.853516 
	C743.518616,1483.408813 743.577820,1483.074707 743.637024,1482.740601 
z"/>
<path fill="#F4EEF3" opacity="1.000000" stroke="none" 
	d="
M677.987610,1447.991821 
	C678.373230,1446.729614 678.406311,1445.130737 679.220581,1444.277832 
	C680.734131,1442.692261 682.574219,1440.826050 684.530090,1440.473633 
	C685.737671,1440.255981 688.168457,1442.338867 688.737549,1443.875122 
	C690.736877,1449.272461 692.460388,1454.815552 693.704590,1460.432739 
	C694.448303,1463.790039 691.579102,1465.507690 688.230652,1463.803589 
	C684.107544,1461.705078 680.896667,1458.817139 680.677124,1453.569092 
	C680.603149,1451.800415 679.367126,1450.080444 678.334167,1448.171631 
	C678.006165,1448.005249 677.987610,1447.991821 677.987610,1447.991821 
z"/>
<path fill="#F4EEF3" opacity="1.000000" stroke="none" 
	d="
M678.015991,1448.013916 
	C677.943970,1448.454590 677.862122,1448.886475 677.780212,1449.318359 
	C677.719604,1448.966431 677.658936,1448.614380 677.792969,1448.127197 
	C677.987610,1447.991821 678.006165,1448.005249 678.015991,1448.013916 
z"/>
<path fill="#F4EEF3" opacity="1.000000" stroke="none" 
	d="
M675.469788,1454.301514 
	C675.486084,1454.051025 675.619446,1453.914551 675.752808,1453.777954 
	C675.697510,1453.990479 675.642212,1454.202881 675.469788,1454.301514 
z"/>
<path fill="#F4EEF3" opacity="1.000000" stroke="none" 
	d="
M676.498352,1451.568115 
	C676.457581,1451.494995 676.636475,1451.473267 676.636475,1451.473267 
	C676.636475,1451.473267 676.539124,1451.641357 676.498352,1451.568115 
z"/>
<path fill="#F4EEF3" opacity="1.000000" stroke="none" 
	d="
M586.494263,1456.742920 
	C586.210754,1460.109741 585.827759,1463.067261 585.444702,1466.024658 
	C582.863770,1464.231812 579.890930,1462.807739 577.784180,1460.568726 
	C573.521667,1456.038574 573.598511,1449.958252 573.278748,1444.213257 
	C573.225647,1443.257568 575.047180,1441.390381 576.032349,1441.369873 
	C577.584595,1441.337280 579.957153,1442.085938 580.586121,1443.255005 
	C582.839478,1447.443848 584.506226,1451.948364 586.494263,1456.742920 
z"/>
<path fill="#F4EEF3" opacity="1.000000" stroke="none" 
	d="
M406.845917,1485.523438 
	C407.302856,1484.464600 407.563141,1483.606812 408.130157,1483.078369 
	C409.336121,1481.954956 411.280426,1479.876831 411.892548,1480.191650 
	C413.702698,1481.122803 415.012360,1483.027100 416.721802,1484.853027 
	C418.980286,1491.079468 420.477295,1497.279175 423.235687,1502.855103 
	C426.421143,1509.294067 423.589050,1513.841064 420.019318,1519.433716 
	C414.286102,1512.743652 412.212219,1505.293579 411.229767,1497.393555 
	C411.045685,1495.913452 411.161987,1494.366577 410.755981,1492.961426 
	C410.637024,1492.549683 409.194672,1492.520386 407.824615,1492.629150 
	C406.669800,1492.223511 406.049255,1491.504639 405.428680,1490.785767 
	C405.881866,1489.148438 406.335052,1487.510986 406.845917,1485.523438 
z"/>
<path fill="#89C1EB" opacity="1.000000" stroke="none" 
	d="
M405.182404,1491.021729 
	C406.049255,1491.504639 406.669800,1492.223511 407.658966,1492.902100 
	C408.031860,1496.492798 407.306000,1500.315796 408.198486,1503.713623 
	C409.851837,1510.007568 412.451569,1516.052856 414.719269,1522.375122 
	C411.435730,1524.116577 404.477051,1522.099365 402.211151,1517.707275 
	C399.972229,1513.367310 398.350311,1508.868652 400.297333,1503.868286 
	C401.922241,1499.695312 403.395630,1495.463501 405.182404,1491.021729 
z"/>
<path fill="#89C1EB" opacity="1.000000" stroke="none" 
	d="
M743.439453,1482.886475 
	C743.577820,1483.074707 743.518616,1483.408813 743.213806,1483.843018 
	C742.904602,1483.593018 742.995911,1483.289551 743.439453,1482.886475 
z"/>
<path fill="#110C22" opacity="1.000000" stroke="none" 
	d="
M311.630402,1659.952637 
	C311.282593,1661.599121 310.563843,1662.949219 309.845093,1664.299194 
	C309.402710,1664.062988 308.960327,1663.826904 308.517944,1663.590820 
	C308.517944,1661.082397 308.517944,1658.573975 308.517944,1656.065552 
	C308.752441,1655.965576 308.986969,1655.865479 309.221466,1655.765381 
	C309.900818,1657.062256 310.580139,1658.359131 311.630402,1659.952637 
z"/>
<path fill="#89C1EB" opacity="1.000000" stroke="none" 
	d="
M494.966614,1281.081421 
	C495.813049,1284.215576 497.320587,1287.349609 497.321564,1290.484009 
	C497.322510,1293.671997 495.839142,1296.860352 494.841614,1300.420654 
	C494.677521,1300.792603 494.621735,1301.083008 494.621735,1301.083008 
	C494.472595,1301.242920 494.323486,1301.402832 493.872437,1302.012207 
	C493.489471,1302.771729 493.294800,1302.970825 492.986511,1303.058960 
	C492.986511,1303.058960 493.052612,1303.021240 492.723999,1303.196289 
	C484.765961,1307.087524 479.319397,1303.133911 480.219482,1294.229126 
	C479.635406,1295.358887 479.051300,1296.488770 478.467224,1297.618530 
	C475.843781,1289.772461 478.357788,1282.877563 483.159119,1276.903442 
	C484.497833,1275.237549 487.978363,1275.293213 490.301819,1274.863037 
	C483.213470,1276.058105 484.680756,1279.530396 488.037292,1284.549316 
	C489.104614,1286.145142 491.641388,1286.758179 493.505737,1287.820923 
	C494.005005,1285.901855 494.516296,1283.985718 494.991364,1282.060669 
	C495.066803,1281.755005 494.978973,1281.408813 494.966614,1281.081421 
z"/>
<path fill="#89C1EB" opacity="1.000000" stroke="none" 
	d="
M630.823120,1301.209106 
	C634.450500,1308.973633 629.934021,1321.569946 622.915710,1323.263184 
	C617.126587,1324.659790 611.124817,1320.913330 611.230042,1315.043335 
	C611.347046,1308.515137 611.404053,1301.626831 617.009399,1296.430908 
	C618.411438,1298.692993 618.679626,1301.426025 620.185791,1302.841431 
	C622.511536,1305.026978 625.684448,1306.310913 628.498047,1307.977173 
	C629.273071,1305.721191 630.048096,1303.465088 630.823120,1301.209106 
z"/>
<path fill="#89C1EB" opacity="1.000000" stroke="none" 
	d="
M569.825256,1257.934082 
	C570.129456,1267.697388 566.356384,1272.579956 558.839661,1272.048828 
	C557.721497,1271.969604 556.375305,1271.781738 555.595947,1271.109253 
	C554.672729,1270.312866 553.749878,1268.959229 553.698425,1267.808105 
	C553.499329,1263.360718 546.596680,1261.115723 549.947205,1255.478882 
	C552.277588,1251.558350 554.058838,1247.311401 556.436096,1243.523926 
	C554.337158,1249.784546 558.353638,1253.671143 561.405273,1257.729736 
	C563.940002,1261.100464 566.983521,1258.863281 569.825256,1257.934082 
z"/>
<path fill="#89C1EB" opacity="1.000000" stroke="none" 
	d="
M684.848755,1172.140991 
	C684.929260,1176.360474 682.884155,1177.308960 679.172546,1175.930176 
	C677.399597,1175.271606 675.545532,1174.831665 673.728210,1174.292847 
	C673.430664,1174.639526 673.133179,1174.986328 672.835632,1175.333130 
	C674.920166,1178.442627 677.004700,1181.552246 679.104858,1184.685181 
	C673.071411,1187.648804 670.524353,1186.726929 668.891846,1181.023193 
	C667.063293,1174.634888 668.637756,1168.750122 672.450195,1163.452759 
	C675.062988,1169.130981 678.684509,1172.428589 684.848755,1172.140991 
z"/>
<path fill="#F4EEF3" opacity="1.000000" stroke="none" 
	d="
M569.825195,1257.901245 
	C566.983521,1258.863281 563.940002,1261.100464 561.405273,1257.729736 
	C558.353638,1253.671143 554.337158,1249.784546 556.751587,1243.458252 
	C556.854309,1242.940918 556.992310,1242.802734 557.694702,1242.443237 
	C560.031616,1242.241699 561.804260,1242.261475 563.576904,1242.281250 
	C568.418579,1245.328003 569.260010,1250.292358 569.815002,1256.057129 
	C569.802490,1257.095581 569.828369,1257.452515 569.854248,1257.809448 
	C569.854248,1257.809448 569.825195,1257.868408 569.825195,1257.901245 
z"/>
<path fill="#F4EEF3" opacity="1.000000" stroke="none" 
	d="
M571.721191,1338.689087 
	C571.844727,1340.500977 572.258545,1342.157837 571.729431,1343.419067 
	C571.098816,1344.922363 569.881348,1346.515137 568.487305,1347.235596 
	C567.660889,1347.662720 565.806396,1346.750854 564.752991,1345.978882 
	C559.620667,1342.217407 559.569763,1336.436768 559.004883,1330.451904 
	C558.972107,1330.027100 559.013306,1330.006592 559.240540,1329.910400 
	C559.748291,1329.671021 559.988464,1329.477783 560.188232,1329.234375 
	C564.459595,1327.999634 567.645874,1329.318726 569.576904,1333.347534 
	C570.353516,1334.968018 570.927612,1336.685547 571.721191,1338.689087 
z"/>
<path fill="#F4EEF3" opacity="1.000000" stroke="none" 
	d="
M630.812805,1301.177002 
	C630.048096,1303.465088 629.273071,1305.721191 628.498047,1307.977173 
	C625.684448,1306.310913 622.511536,1305.026978 620.185791,1302.841431 
	C618.679626,1301.426025 618.411438,1298.692993 617.338867,1296.308594 
	C620.905762,1290.569702 624.316772,1290.675171 628.933716,1296.958374 
	C629.245056,1297.818848 629.468567,1298.028809 629.803955,1298.119629 
	C629.803955,1298.119629 629.934570,1298.087158 629.869385,1298.445557 
	C630.139709,1299.562012 630.475281,1300.320068 630.810852,1301.078247 
	C630.810852,1301.078247 630.802490,1301.145020 630.812805,1301.177002 
z"/>
<path fill="#F4EEF3" opacity="1.000000" stroke="none" 
	d="
M702.624512,1225.256470 
	C703.317810,1227.555176 704.182495,1229.630371 704.178040,1231.703491 
	C704.173767,1233.691772 703.268005,1235.678101 702.758423,1237.665283 
	C700.514465,1236.812744 697.719604,1236.512817 696.167725,1234.966064 
	C694.273376,1233.078003 693.422729,1230.142822 691.929443,1227.365479 
	C693.288940,1226.002563 694.839722,1224.934570 697.122620,1223.908691 
	C699.103271,1224.009399 700.351929,1224.067993 701.600586,1224.126709 
	C701.872314,1224.428467 702.144104,1224.730225 702.624512,1225.256470 
z"/>
<path fill="#F4EEF3" opacity="1.000000" stroke="none" 
	d="
M628.656250,1155.948975 
	C629.364624,1158.398438 630.072998,1160.847778 630.392334,1163.668213 
	C626.816040,1165.241455 624.286316,1164.949951 622.590820,1161.456909 
	C621.484192,1159.176880 619.849670,1157.153198 618.451538,1155.014648 
	C619.665222,1153.728638 621.055298,1151.255737 622.055664,1151.404419 
	C624.123718,1151.712036 625.984314,1153.415283 628.027771,1155.076416 
	C628.231934,1155.831421 628.408936,1155.944946 628.656250,1155.948975 
z"/>
<path fill="#F4EEF3" opacity="1.000000" stroke="none" 
	d="
M684.859619,1171.708130 
	C678.684509,1172.428589 675.062988,1169.130981 672.780151,1163.375122 
	C677.049988,1157.404785 679.228638,1157.884644 684.031311,1166.039795 
	C684.197021,1166.774292 684.327393,1166.936890 684.543091,1167.031006 
	C684.652222,1168.445801 684.761414,1169.860474 684.859619,1171.708130 
z"/>
<path fill="#F4EEF3" opacity="1.000000" stroke="none" 
	d="
M494.906219,1280.732544 
	C494.978973,1281.408813 495.066803,1281.755005 494.991364,1282.060669 
	C494.516296,1283.985718 494.005005,1285.901855 493.505737,1287.820923 
	C491.641388,1286.758179 489.104614,1286.145142 488.037292,1284.549316 
	C484.680756,1279.530396 483.213470,1276.058105 490.483856,1275.181519 
	C492.175537,1276.925293 493.510681,1278.654541 494.906219,1280.732544 
z"/>
<path fill="#110C22" opacity="1.000000" stroke="none" 
	d="
M478.482056,1297.726929 
	C479.051300,1296.488770 479.635406,1295.358887 480.219482,1294.229126 
	C479.319397,1303.133911 484.765961,1307.087524 492.712646,1303.160034 
	C490.699493,1306.574707 487.294708,1307.364746 483.548218,1305.940552 
	C480.015350,1304.597656 478.177063,1301.786377 478.482056,1297.726929 
z"/>
<path fill="#89C1EB" opacity="1.000000" stroke="none" 
	d="
M618.279663,1155.385376 
	C619.849670,1157.153198 621.484192,1159.176880 622.590820,1161.456909 
	C624.286316,1164.949951 626.816040,1165.241455 630.352173,1164.078369 
	C629.404846,1166.134399 628.108582,1168.151123 626.653381,1170.415039 
	C621.360168,1166.241699 617.453064,1162.325439 618.279663,1155.385376 
z"/>
<path fill="#89C1EB" opacity="1.000000" stroke="none" 
	d="
M616.330444,1167.909424 
	C615.892822,1168.992310 615.543274,1169.684937 615.193726,1170.377563 
	C614.539490,1169.801025 613.278809,1169.164307 613.329224,1168.657837 
	C613.666809,1165.261597 614.283325,1161.893188 614.809448,1158.515747 
	C615.572876,1158.601440 616.336365,1158.687134 617.099792,1158.772949 
	C616.872742,1161.688232 616.645630,1164.603638 616.330444,1167.909424 
z"/>
<path fill="#110C22" opacity="1.000000" stroke="none" 
	d="
M686.060791,1240.484619 
	C687.454956,1244.704468 689.076050,1248.535522 690.866028,1252.709961 
	C687.747314,1250.938354 686.429810,1248.156372 687.410889,1244.164307 
	C687.703857,1242.972290 686.698303,1241.461060 686.060791,1240.484619 
z"/>
<path fill="#110C22" opacity="1.000000" stroke="none" 
	d="
M691.120728,1253.223389 
	C693.349121,1253.388916 695.751953,1253.812866 697.723450,1254.160645 
	C697.817810,1254.086548 697.326294,1254.472412 696.605225,1254.981445 
	C694.682251,1254.563843 692.988770,1254.022827 691.120728,1253.223389 
z"/>
<path fill="#89C1EB" opacity="1.000000" stroke="none" 
	d="
M563.517944,1241.950562 
	C561.804260,1242.261475 560.031616,1242.241699 557.889221,1242.224365 
	C559.279358,1239.871704 561.224426,1239.329346 563.517944,1241.950562 
z"/>
<path fill="#89C1EB" opacity="1.000000" stroke="none" 
	d="
M701.653320,1223.782715 
	C700.351929,1224.067993 699.103271,1224.009399 697.492432,1223.863037 
	C698.474609,1221.203369 700.012634,1221.264038 701.653320,1223.782715 
z"/>
<path fill="#89C1EB" opacity="1.000000" stroke="none" 
	d="
M630.903748,1300.739990 
	C630.475281,1300.320068 630.139709,1299.562012 629.812500,1298.481567 
	C630.212830,1298.906738 630.604736,1299.654175 630.903748,1300.739990 
z"/>
<path fill="#89C1EB" opacity="1.000000" stroke="none" 
	d="
M570.055542,1257.712646 
	C569.828369,1257.452515 569.802490,1257.095581 569.843506,1256.479980 
	C570.025879,1256.686035 570.141357,1257.151001 570.055542,1257.712646 
z"/>
<path fill="#110C22" opacity="1.000000" stroke="none" 
	d="
M494.501465,1301.144531 
	C494.621735,1301.083008 494.677521,1300.792603 494.613037,1300.782715 
	C494.548584,1300.772705 494.264984,1300.880615 494.264984,1300.880615 
	C494.264984,1300.880615 494.381165,1301.205933 494.501465,1301.144531 
z"/>
<path fill="#89C1EB" opacity="1.000000" stroke="none" 
	d="
M684.606567,1166.860596 
	C684.327393,1166.936890 684.197021,1166.774292 684.164917,1166.384766 
	C684.455017,1166.260986 684.619080,1166.415771 684.606567,1166.860596 
z"/>
<path fill="#89C1EB" opacity="1.000000" stroke="none" 
	d="
M629.801941,1297.878662 
	C629.468567,1298.028809 629.245056,1297.818848 629.120911,1297.252686 
	C629.444763,1297.105103 629.675293,1297.312622 629.801941,1297.878662 
z"/>
<path fill="#89C1EB" opacity="1.000000" stroke="none" 
	d="
M628.644775,1155.786377 
	C628.408936,1155.944946 628.231934,1155.831421 628.113525,1155.447021 
	C628.337708,1155.306152 628.514893,1155.418823 628.644775,1155.786377 
z"/>
<path fill="#89C1EB" opacity="1.000000" stroke="none" 
	d="
M559.926025,1329.211426 
	C559.988464,1329.477783 559.748291,1329.671021 559.248474,1329.888916 
	C559.240723,1329.705200 559.452271,1329.446899 559.926025,1329.211426 
z"/>
<path fill="#110C22" opacity="1.000000" stroke="none" 
	d="
M493.008057,1302.822998 
	C493.294800,1302.970825 493.489471,1302.771729 493.697998,1302.290039 
	C493.491852,1302.158325 493.226562,1302.314575 493.008057,1302.822998 
z"/>
<path fill="#F4EEF3" opacity="1.000000" stroke="none" 
	d="
M704.282593,1326.127197 
	C709.919678,1331.053467 712.140930,1337.169067 711.975708,1344.104980 
	C711.856995,1349.087769 708.922424,1350.439209 704.591919,1347.831177 
	C699.649536,1344.854736 694.984741,1334.609009 696.428162,1328.962158 
	C697.436584,1325.016846 700.941956,1325.834839 704.282593,1326.127197 
z"/>
<path fill="#30D6F8" opacity="1.000000" stroke="none" 
	d="
M753.747314,1385.761963 
	C756.835571,1386.103638 759.333008,1386.270386 761.830383,1386.437012 
	C761.829224,1387.019409 761.828064,1387.601807 761.826904,1388.184082 
	C756.222839,1390.305542 750.224060,1388.912231 744.430542,1389.120972 
	C738.121277,1389.348389 731.797241,1389.167603 725.479675,1389.168091 
	C719.328491,1389.168701 713.177368,1389.173462 706.809082,1389.199219 
	C693.588196,1389.222046 680.584412,1389.222046 667.580688,1389.222046 
	C667.572754,1388.417480 667.564880,1387.612915 667.556946,1386.808228 
	C696.067871,1385.695068 724.576233,1384.500122 753.747314,1385.761963 
z"/>
<path fill="#F4EEF3" opacity="1.000000" stroke="none" 
	d="
M419.582397,1290.440430 
	C420.776764,1293.937866 422.027527,1297.048828 422.708160,1300.279785 
	C423.860474,1305.749756 420.768646,1311.595337 415.831726,1314.046753 
	C413.016998,1315.444214 410.937469,1314.816650 411.260956,1311.494629 
	C411.967499,1304.238281 412.662170,1296.917603 414.305145,1289.842407 
	C415.122528,1286.322510 417.735718,1288.110840 419.582397,1290.440430 
z"/>
</svg>